
<svg version="1.1" id="Layer_1" xmlns="http://www.w3.org/2000/svg" xmlns:xlink="http://www.w3.org/1999/xlink" x="0px" y="0px"
	 viewBox="0 0 1024 1024" style="enable-background:new 0 0 1024 1024;" xml:space="preserve">
<style type="text/css">
	.st0{fill:url(#SVGID_1_);}
	.st1{fill:url(#SVGID_00000176038950186399173310000000869468251090609810_);}
	.st2{fill:url(#SVGID_00000013159929925729822480000004103894056843813784_);}
	.st3{fill:url(#SVGID_00000116950266731351603940000008276042990190425530_);}
	.st4{fill:url(#SVGID_00000155144050152925316510000007212091097676229267_);}
	.st5{fill:url(#SVGID_00000114035157789254092970000015416182320067501966_);}
	.st6{fill:url(#SVGID_00000071541846053830733620000009732395048394158984_);}
	.st7{fill:url(#SVGID_00000139280692033254866860000006464771856421608608_);}
	.st8{fill:url(#SVGID_00000038411180004044405040000002998746776051950244_);}
	.st9{fill:url(#SVGID_00000080199252560802076370000001513572898379560346_);}
	.st10{fill:url(#SVGID_00000183930538876525567330000001023923310344742842_);}
	.st11{fill:url(#SVGID_00000110468735266823007360000002983279955355126415_);}
	.st12{fill:url(#SVGID_00000143598274268618177520000002462466970880339335_);}
	.st13{fill:url(#SVGID_00000134939523649785642140000015513194201784019847_);}
	.st14{fill:url(#SVGID_00000091007226816400872640000000509250186197036719_);}
</style>
<g id="a">
</g>
<g id="b">
</g>
<g id="c">
</g>
<g id="d">
</g>
<g id="e">
</g>
<g id="f">
	<g>
		
			<linearGradient id="SVGID_1_" gradientUnits="userSpaceOnUse" x1="594.25" y1="172.775" x2="664.36" y2="172.775" gradientTransform="matrix(1 0 0 -1 0 1024)">
			<stop  offset="0" style="stop-color:#B47D2F"/>
			<stop  offset="1" style="stop-color:#F9DA8D"/>
		</linearGradient>
		<path class="st0" d="M664.4,884.5v9.1h-70.1v-84.8h17.7v75.7L664.4,884.5L664.4,884.5z"/>
		
			<linearGradient id="SVGID_00000140701627877970052200000009262718186648336059_" gradientUnits="userSpaceOnUse" x1="679.53" y1="172.765" x2="777.08" y2="172.765" gradientTransform="matrix(1 0 0 -1 0 1024)">
			<stop  offset="0" style="stop-color:#B47D2F"/>
			<stop  offset="1" style="stop-color:#F9DA8D"/>
		</linearGradient>
		<path style="fill:url(#SVGID_00000140701627877970052200000009262718186648336059_);" d="M742.3,808.8l34.8,84.8h-17.6l-8-20.6
			h-46.3l-8,20.6h-17.6l34.8-84.8H742.3z M709.4,864h37.8l-18.3-44.8h-1.2L709.4,864L709.4,864z"/>
		
			<linearGradient id="SVGID_00000124872138913377258950000008493282252348359092_" gradientUnits="userSpaceOnUse" x1="792.9401" y1="172.76" x2="877.07" y2="172.76" gradientTransform="matrix(1 0 0 -1 0 1024)">
			<stop  offset="0" style="stop-color:#B47D2F"/>
			<stop  offset="1" style="stop-color:#F9DA8D"/>
		</linearGradient>
		<path style="fill:url(#SVGID_00000124872138913377258950000008493282252348359092_);" d="M836.8,808.8c6.1,0,11.6,0.7,16.4,2
			s8.9,3.3,12.3,5.8c3.3,2.5,5.9,5.7,7.7,9.3s2.7,7.9,2.7,12.5c0,6.5-1.6,11.9-4.9,16.4s-7.9,7.8-14,10.2l20.1,28.6H857L839,868.2
			h-28.4v25.4h-17.7v-84.8L836.8,808.8L836.8,808.8z M810.6,817.9v41.2h26.2c6.4,0,11.4-1.7,14.9-5c3.5-3.3,5.2-8.5,5.2-15.6
			s-1.8-12.2-5.2-15.6c-3.5-3.3-8.5-5-14.9-5L810.6,817.9L810.6,817.9z"/>
		
			<linearGradient id="SVGID_00000057133830751771570250000007541066371532060083_" gradientUnits="userSpaceOnUse" x1="892.92" y1="172.765" x2="990.47" y2="172.765" gradientTransform="matrix(1 0 0 -1 0 1024)">
			<stop  offset="0" style="stop-color:#B47D2F"/>
			<stop  offset="1" style="stop-color:#F9DA8D"/>
		</linearGradient>
		<path style="fill:url(#SVGID_00000057133830751771570250000007541066371532060083_);" d="M955.7,808.8l34.8,84.8h-17.6l-8-20.6
			h-46.3l-8,20.6h-17.6l34.8-84.8H955.7z M922.8,864h37.8l-18.3-44.8h-1.2L922.8,864L922.8,864z"/>
		
			<linearGradient id="SVGID_00000175303702696132031460000014843972456986786749_" gradientUnits="userSpaceOnUse" x1="33.53" y1="172.765" x2="118.88" y2="172.765" gradientTransform="matrix(1 0 0 -1 0 1024)">
			<stop  offset="0" style="stop-color:#B47D2F"/>
			<stop  offset="1" style="stop-color:#F9DA8D"/>
		</linearGradient>
		<path style="fill:url(#SVGID_00000175303702696132031460000014843972456986786749_);" d="M118.9,808.8v84.8h-17.7v-37h-50v37H33.5
			v-84.8h17.7v38.8h50v-38.8H118.9z"/>
		
			<linearGradient id="SVGID_00000039832006662865505450000009530646284097263278_" gradientUnits="userSpaceOnUse" x1="139.29" y1="172.765" x2="236.85" y2="172.765" gradientTransform="matrix(1 0 0 -1 0 1024)">
			<stop  offset="0" style="stop-color:#B47D2F"/>
			<stop  offset="1" style="stop-color:#F9DA8D"/>
		</linearGradient>
		<path style="fill:url(#SVGID_00000039832006662865505450000009530646284097263278_);" d="M188.1,806.4c7.3,0,14,1,19.9,2.9
			c6,1.9,11.1,4.8,15.4,8.6c4.3,3.8,7.6,8.5,9.9,14.1c2.4,5.6,3.5,12,3.5,19.3s-1.2,13.7-3.5,19.3s-5.7,10.3-9.9,14.1
			c-4.3,3.8-9.4,6.7-15.4,8.6c-6,1.9-12.6,2.9-19.9,2.9s-14-1-20-2.9s-11.2-4.8-15.4-8.6c-4.3-3.8-7.6-8.5-9.9-14.1
			c-2.3-5.6-3.5-12-3.5-19.3s1.2-13.7,3.5-19.3c2.3-5.6,5.6-10.3,9.9-14.1c4.3-3.8,9.4-6.7,15.4-8.6
			C174.1,807.4,180.8,806.4,188.1,806.4z M188.1,814.9c-4.1,0-8,0.7-11.6,2.2c-3.6,1.5-6.8,3.7-9.4,6.7s-4.8,6.8-6.4,11.3
			s-2.4,10-2.4,16.2s0.8,11.6,2.4,16.2c1.6,4.6,3.7,8.3,6.4,11.3c2.7,3,5.8,5.2,9.4,6.7c3.6,1.5,7.5,2.2,11.6,2.2s8-0.7,11.6-2.2
			c3.6-1.5,6.8-3.7,9.4-6.7c2.7-3,4.8-6.8,6.4-11.3c1.6-4.6,2.4-10,2.4-16.2s-0.8-11.6-2.4-16.2c-1.6-4.6-3.7-8.3-6.4-11.3
			c-2.7-3-5.8-5.2-9.4-6.7C196.1,815.6,192.2,814.9,188.1,814.9z"/>
		
			<linearGradient id="SVGID_00000137849491800727489690000010774055199601273526_" gradientUnits="userSpaceOnUse" x1="245.16" y1="172.77" x2="328.69" y2="172.77" gradientTransform="matrix(1 0 0 -1 0 1024)">
			<stop  offset="0" style="stop-color:#B47D2F"/>
			<stop  offset="1" style="stop-color:#F9DA8D"/>
		</linearGradient>
		<path style="fill:url(#SVGID_00000137849491800727489690000010774055199601273526_);" d="M328.7,817.9h-32.9v75.7h-17.7v-75.7
			h-32.9v-9.1h83.5L328.7,817.9L328.7,817.9z"/>
		
			<linearGradient id="SVGID_00000132796641625641034330000017735478620825773706_" gradientUnits="userSpaceOnUse" x1="247.89" y1="172.77" x2="331.42" y2="172.77" gradientTransform="matrix(1 0 0 -1 0 1024)">
			<stop  offset="0" style="stop-color:#B47D2F"/>
			<stop  offset="1" style="stop-color:#F9DA8D"/>
		</linearGradient>
		<path style="fill:url(#SVGID_00000132796641625641034330000017735478620825773706_);" d="M331.4,817.9h-32.9v75.7h-17.7v-75.7
			h-32.9v-9.1h83.5L331.4,817.9L331.4,817.9z"/>
		
			<linearGradient id="SVGID_00000096051529765947903070000014011019905077096868_" gradientUnits="userSpaceOnUse" x1="347.56" y1="851.225" x2="421.94" y2="851.225">
			<stop  offset="0" style="stop-color:#B47D2F"/>
			<stop  offset="1" style="stop-color:#F9DA8D"/>
		</linearGradient>
		<path style="fill:url(#SVGID_00000096051529765947903070000014011019905077096868_);" d="M365.2,817.9v27.9h44.5v9.1h-44.5v29.7
			h56.7v9.1h-74.4v-84.8h74.4v9.1L365.2,817.9L365.2,817.9z"/>
		
			<linearGradient id="SVGID_00000068642282685536284410000013896446843961817259_" gradientUnits="userSpaceOnUse" x1="437.2" y1="172.775" x2="507.31" y2="172.775" gradientTransform="matrix(1 0 0 -1 0 1024)">
			<stop  offset="0" style="stop-color:#B47D2F"/>
			<stop  offset="1" style="stop-color:#F9DA8D"/>
		</linearGradient>
		<path style="fill:url(#SVGID_00000068642282685536284410000013896446843961817259_);" d="M507.3,884.5v9.1h-70.1v-84.8h17.7v75.7
			L507.3,884.5L507.3,884.5z"/>
		
			<linearGradient id="SVGID_00000096038750509423866480000002987621126417042826_" gradientUnits="userSpaceOnUse" x1="36.32" y1="294.395" x2="987.68" y2="294.395" gradientTransform="matrix(1 0 0 -1 0 1024)">
			<stop  offset="0" style="stop-color:#B47D2F"/>
			<stop  offset="1" style="stop-color:#F9DA8D"/>
		</linearGradient>
		
			<rect x="36.3" y="718.6" style="fill:url(#SVGID_00000096038750509423866480000002987621126417042826_);" width="951.4" height="22"/>
		<g>
			
				<linearGradient id="SVGID_00000142860543273834755150000005836066925774304941_" gradientUnits="userSpaceOnUse" x1="212.92" y1="437.27" x2="280.38" y2="437.27" gradientTransform="matrix(1 0 0 -1 0 1024)">
				<stop  offset="0" style="stop-color:#B47D2F"/>
				<stop  offset="1" style="stop-color:#F9DA8D"/>
			</linearGradient>
			<polygon style="fill:url(#SVGID_00000142860543273834755150000005836066925774304941_);" points="212.9,652.8 280.4,652.8 
				280.4,520.7 212.9,578.9 			"/>
			
				<linearGradient id="SVGID_00000181776020284801038560000013287496523188338579_" gradientUnits="userSpaceOnUse" x1="212.92" y1="633.625" x2="673.77" y2="633.625" gradientTransform="matrix(1 0 0 -1 0 1024)">
				<stop  offset="0" style="stop-color:#B47D2F"/>
				<stop  offset="1" style="stop-color:#F9DA8D"/>
			</linearGradient>
			<polygon style="fill:url(#SVGID_00000181776020284801038560000013287496523188338579_);" points="606.3,515.3 212.9,127.9 
				212.9,545.7 280.4,487.5 280.4,288.9 611.1,614.5 650.4,652.8 673.8,652.8 673.8,150.7 606.3,150.7 			"/>
		</g>
		
			<linearGradient id="SVGID_00000113339765540565887620000007526231085550923151_" gradientUnits="userSpaceOnUse" x1="743.62" y1="794.62" x2="811.08" y2="794.62" gradientTransform="matrix(1 0 0 -1 0 1024)">
			<stop  offset="0" style="stop-color:#B47D2F"/>
			<stop  offset="1" style="stop-color:#F9DA8D"/>
		</linearGradient>
		<polygon style="fill:url(#SVGID_00000113339765540565887620000007526231085550923151_);" points="743.6,150.4 743.6,308.4 
			811.1,250.1 811.1,150.4 		"/>
		
			<linearGradient id="SVGID_00000042722299843947766120000001758751460259719835_" gradientUnits="userSpaceOnUse" x1="743.62" y1="555.955" x2="811.08" y2="555.955" gradientTransform="matrix(1 0 0 -1 0 1024)">
			<stop  offset="0" style="stop-color:#B47D2F"/>
			<stop  offset="1" style="stop-color:#F9DA8D"/>
		</linearGradient>
		<polygon style="fill:url(#SVGID_00000042722299843947766120000001758751460259719835_);" points="743.6,652.8 811.1,652.8 
			811.1,283.3 743.6,341.5 		"/>
	</g>
</g>
</svg>
