<?xml version="1.0" encoding="UTF-8"?>
<svg id="katman_1" xmlns="http://www.w3.org/2000/svg" version="1.1" viewBox="0 0 595.28 841.89">
  <!-- Generator: Adobe Illustrator 29.6.0, SVG Export Plug-In . SVG Version: 2.1.1 Build 142)  -->
  <defs>
    <style>
      .st0 {
        fill: #fff;
      }

      .st1 {
        opacity: .14;
      }
    </style>
  </defs>
  <g class="st1">
    <g>
      <path class="st0" d="M908.61,46.5v778.01H-258.4V46.5H908.61ZM240.25,313.31v13.83c0,.38-1.19,1.57-.74,2.61h2.24s.74-6.72.74-6.72c.58,1.71-1.45,7.26,1.5,6.72-.45-2.83.3-9.31,4.16-8.85.93.11.22,2.49,2.86,2.12,1.81-.25,6.66-3.15,7.54-2.98,2.02.39,1.18,5.77-.73,6.72-1.63.81-.69-1.72-1.56-2.32-2.87-2.01-9.49.09-9.27,4.57h5.97c.04-1.47-.59-2.66,1.5-2.24l.07,2.92c1.22.97,3.1-.14,3.9.04.57.12,1.78,3.69,5.01,2.28.41-3.28-.89-8.67.75-11.46.28-.49,1.5-.45,1.54-.93.12-1.37-1.33-2.62-1.58-4.39s.4-9.78.04-10.13c-8.95.88-17.85-.44-26.92,0v8.23s2.99,0,2.99,0ZM122.13,418.32v26.53l12.39,1.45c.46,4.85,1.61,9.59,2.94,14.25,2.28,7.97,6.59,15.18,8.83,22.56.49,1.61.92,7.41,1.4,7.94.34.38,2.45.33,3.58,1.28,1.48,1.23,4.2,7.39,6.01,9.68,8.75,11.02,19.87,18.52,30.25,27.3,1.29,1.09,1.65,3.19,3.57,3.93,1.09.42,2.31-.29,3.51.13,6.56,2.3,13.45,6.37,20.19,8.29,6.77,1.93,14.74,2.67,21.7,4.09v12.33l1.12,1.12h25.42l1.12-1.12v-11.21c7.61-3.64,16.87-3.78,24.84-6.56,5.07-1.77,10.14-5.68,15.03-7.47,1.49-.54,2.63.23,4.01-.34,2.72-1.12,25.48-21.83,28.66-25.23,3.93-4.22,6.97-10.13,10.8-14.61,1.09-1.28,3.6-2.43,3.99-3.49,3.05-8.35,7.02-17.79,9.49-26.39,1.76-6.12,2.06-12.49,3.36-18.69h11.96v-25.78c-.54-.7-.77-.95-1.69-.98-1.62-.04-10.25,1.41-11.03.61-.24-7.68-2.67-15.68-5.05-22.99-1.93-5.93-5.15-11.37-7.29-17.36-.57-1.59-.19-4.32-1.04-5.52-.52-.74-2.18-.5-3.1-1.54-4.24-4.79-9.05-14.28-13.44-18.71-5.37-5.42-17.68-12.07-22.06-16.81-1.18-1.28-1.03-3.16-2.76-3.97-1.56-.74-3.52-.31-5.09-.89-3.6-1.34-7.58-3.91-11.21-5.24-7.81-2.85-16.36-5.78-24.66-6.36.09.82,1,1.37,1.7,1.66,11.35,4.73,22.66,6.28,33.43,13.68,1.03.7,1.29,2.2,2.01,2.64,2.28,1.38,7.98,1.8,11.71,4.54,1.79,1.31,2.3,3.07,3.81,4.41,6.96,6.17,18.58,15.51,22.51,23.84,2.04,4.32-.6,8,5.65,8.72,3.86,10.52,10.24,22.55,11.68,33.74.2,1.57.8,4.73-.54,5.84l-11.22.32v11.58c-4.57,3.33-11.73-.17-16.14-.31-4.69-.15-11.37.81-16.35.71-3.41-.07-6.78-.4-10.16-.36-.81-4.23-1.31-8.35-2.43-12.53-6.53-24.48-26.33-38.2-50.96-39.49-9.53-.5-23.85,1.5-32.04,6.16-16.21,9.22-26.54,26.86-27.43,45.45l-40.74.74c-.64.11-1.87-.74-1.87-1.12v-11.58h-11.96c1.04-10.03,4.03-20.45,8.09-29.66.85-1.93,3.68-8.3,4.7-9.52s2.25-.91,2.96-1.69c1.4-1.54.76-4.16,1.52-5.71,3.36-6.89,25.42-28.8,32.32-32.04,2.53-1.18,7.76-1.79,9.04-2.76,1-.76-.13-2.34.9-3.16,2.07-1.66,12.38-5.77,15.41-6.85,2.75-.97,22.14-6.58,22.97-5.74l.77,2.2c.29-1.64,1.92-5.61.02-6.71.05,1.14-.37,1.6-1.43,1.92-5.18,1.55-12.2,1.99-18.02,3.68-7.46,2.16-13.91,5.71-20.95,8.27-1.17.43-2.37-.29-3.51.13-2.05.76-2.84,3.3-4.43,4.56-9.21,7.33-17.67,12.07-25.66,21.43-3,3.52-6.84,10.87-9.72,13.45-1.34,1.2-3.06,1.12-4.1,2.63-1.34,1.93-.78,4.73-1.51,6.71-2.18,5.93-5.84,11.86-8.07,18.09-1.31,3.67-4.8,19.18-5.73,20.45-1.51,2.06-9.7-1.59-12.01,1.43ZM252.21,332l-8.23.37c0,.51,3.76-.6,4.45,3.78.85,5.33.67,14.4.82,20.11.17,6.6-.18,13.25-.03,19.84h3.74c.37-.27-.75-.97-.75-1.12v-42.97Z"/>
      <path d="M122.13,418.32c2.32-3.01,10.5.64,12.01-1.43.93-1.27,4.42-16.78,5.73-20.45,2.23-6.24,5.89-12.16,8.07-18.09.73-1.99.17-4.78,1.51-6.71,1.04-1.51,2.76-1.43,4.1-2.63,2.88-2.58,6.72-9.93,9.72-13.45,7.99-9.37,16.45-14.1,25.66-21.43,1.59-1.26,2.38-3.8,4.43-4.56,1.14-.42,2.34.29,3.51-.13,7.04-2.56,13.5-6.11,20.95-8.27,5.82-1.69,12.84-2.13,18.02-3.68,1.05-.32,1.47-.77,1.43-1.92,1.9,1.1.27,5.08-.02,6.71l-.77-2.2c-.83-.85-20.22,4.77-22.97,5.74-3.04,1.07-13.34,5.19-15.41,6.85-1.02.82.11,2.4-.9,3.16-1.29.97-6.51,1.58-9.04,2.76-6.9,3.23-28.96,25.15-32.32,32.04-.75,1.54-.12,4.17-1.52,5.71-.71.78-1.94.47-2.96,1.69s-3.85,7.59-4.7,9.52c-4.06,9.21-7.05,19.62-8.09,29.66h11.96v11.58c0,.38,1.24,1.23,1.87,1.12l40.74-.74c.89-18.59,11.22-36.23,27.43-45.45,8.19-4.66,22.51-6.66,32.04-6.16,24.64,1.29,44.43,15.01,50.96,39.49,1.12,4.18,1.61,8.3,2.43,12.53,3.37-.04,6.75.3,10.16.36,4.98.1,11.65-.87,16.35-.71,4.41.14,11.58,3.64,16.14.31v-11.58l11.22-.32c1.34-1.11.74-4.28.54-5.84-1.44-11.19-7.82-23.22-11.68-33.74-6.25-.72-3.61-4.4-5.65-8.72-3.93-8.33-15.55-17.67-22.51-23.84-1.51-1.34-2.02-3.1-3.81-4.41-3.74-2.74-9.44-3.16-11.71-4.54-.72-.44-.99-1.93-2.01-2.64-10.77-7.4-22.08-8.94-33.43-13.68-.7-.29-1.61-.84-1.7-1.66,8.3.58,16.84,3.51,24.66,6.36,3.63,1.32,7.61,3.9,11.21,5.24,1.57.58,3.52.16,5.09.89,1.73.81,1.57,2.69,2.76,3.97,4.38,4.74,16.69,11.4,22.06,16.81,4.39,4.43,9.19,13.92,13.44,18.71.92,1.04,2.58.81,3.1,1.54.85,1.2.47,3.93,1.04,5.52,2.15,5.99,5.36,11.43,7.29,17.36,2.38,7.31,4.82,15.31,5.05,22.99.77.8,9.41-.65,11.03-.61.92.02,1.15.28,1.69.98v25.78h-11.96c-1.3,6.2-1.6,12.57-3.36,18.69-2.47,8.6-6.44,18.03-9.49,26.39-.39,1.06-2.89,2.21-3.99,3.49-3.83,4.48-6.87,10.39-10.8,14.61-3.17,3.4-25.94,24.11-28.66,25.23-1.38.57-2.52-.21-4.01.34-4.89,1.79-9.95,5.7-15.03,7.47-7.97,2.77-17.23,2.92-24.84,6.56v11.21l-1.12,1.12h-25.42l-1.12-1.12v-12.33c-6.96-1.43-14.93-2.16-21.7-4.09-6.74-1.92-13.62-5.98-20.19-8.29-1.2-.42-2.42.3-3.51-.13-1.92-.74-2.28-2.84-3.57-3.93-10.38-8.78-21.5-16.28-30.25-27.3-1.82-2.29-4.53-8.45-6.01-9.68-1.14-.95-3.24-.9-3.58-1.28-.48-.54-.91-6.33-1.4-7.94-2.25-7.38-6.56-14.59-8.83-22.56-1.33-4.66-2.48-9.4-2.94-14.25l-12.39-1.45v-26.53ZM243.98,391.04c-.15-2.65.15-7.23-2.23-8.96.26,2.18.43,4.78.96,6.89.19.75.21,2.25,1.27,2.07ZM246.22,391.04c.06-1.59.07-3.17-.09-4.76-.08-.84-.34-4.11-1.39-4.2.02,1.83-.15,3.68.08,5.51.1.81.28,3.5,1.4,3.45ZM248.47,382.07c-2.62-.59-1.17,2.59-1.53,4.15l1.53,10.8v-14.95ZM250.71,390.29c-.04-1.86.09-3.75,0-5.61-.04-.91.57-2.78-.74-2.6.04,1.86-.09,3.75,0,5.61.04.91-.57,2.78.74,2.6ZM253.7,382.07c-.93-1.21-1.35.01-1.49,1.1-.28,2.21.2,4.84,0,7.11l1.48-8.21ZM255.19,391.03l.75-8.96-1.52,2.59.77,6.38ZM257.44,391.04c-.14-2.68,2.45-6.71.38-8.97-.73,2.6-1.25,5.35-1.7,8.02-.24,1.44.02.9,1.32.94ZM241.74,391.78c.03-2.24-.36-4.73-.97-6.87-.22-.77-.17-2.26-1.26-2.09-.03,2.24.36,4.73.97,6.87.22.77.17,2.26,1.26,2.09ZM259.68,391.79l1.5-8.97c-1.62,1.21-4.06,7.94-1.5,8.97ZM238,383.56l-1.37,1,2.87,7.22-1.5-8.22ZM261.92,391.79l1.5-8.22c-1.38.23-1.25,1.54-1.59,2.51-.22.63-2.37,8.37.09,5.71ZM235.75,384.31l-1.46,1.08,2.96,7.14-1.5-8.22ZM266.41,384.32c-1.9-.34-1.35.29-1.83,1.49-.8,2-1.21,4.62-1.9,6.72,2.12.38,1.23-.5,1.68-1.64.39-.97,2.27-6.31,2.05-6.57ZM235.76,393.27c-1.54-2.46-1.24-6.51-3.73-8.21-.11,2.23.93,4.77,1.9,6.72.53,1.06-.18,1.89,1.83,1.5ZM266.41,393.28l2.24-8.22c-1.17.19-1.4,1.4-1.85,2.26-.58,1.12-3.47,6.8-.4,5.96ZM230.52,385.81c-3.17-.83.69,5.29,1.31,6.57.49,1.02-.48,2.06,1.68,1.64l-3-8.21ZM267.17,394.03c2.1-1.53,3.54-4.97,3.72-7.47-2.1,1.53-3.54,4.97-3.72,7.47ZM228.27,387.3l-1.47.36c1.27,2.41,2.01,5.52,4.47,7.11l-2.99-7.47ZM269.39,397.02l3.74-9.71c-1.71,1.71-4.57,6.53-5.16,8.67-.38,1.4.36,1.11,1.42,1.04ZM229.03,396.27c-.13-2.97-2.2-6.32-4.47-8.22.05,1.58,1.13,3.1,1.85,4.49.55,1.07,1.5,3.32,2.62,3.72ZM276.13,388.8c-1.26-1.25-5.68,6.92-5.23,7.46,1.19,1.43,1.6-1.12,1.85-1.48,1.26-1.9,2.43-3.91,3.38-5.98ZM228.28,398.51c-.91-3.22-3.41-6.92-5.97-8.97.91,3.22,3.41,6.92,5.97,8.97ZM274.64,397.02l3.74-6.72c-1.39-1.31-5.94,6.36-5.23,7.47l1.49-.75.04,1.44c1.24.98,4.98-5.13,5.19-6.67l-5.23,5.23ZM221.54,391.04c-3.59-.68,1.26,4.84,2.09,5.76.73.81.81,2.09,2.41,1.7l-4.5-7.46ZM223.79,400.01c.72-.83-3.88-6.38-5.22-6.73-.24,1.37,4.84,7.16,5.22,6.73ZM276.13,400c1.07.99,6.49-6.15,5.97-6.72-1.28.23-6.31,6.41-5.97,6.72ZM217.81,394.78l-1.47,1.11,5.97,5.62-4.49-6.72ZM278.38,401.5c1.82-1.5,4.84-3.49,5.22-5.98-1.82,1.5-4.84,3.49-5.22,5.98ZM220.06,402.25c.84-.82-5.07-6.79-5.98-5.97.07,1.26,4.97,6.96,5.98,5.97ZM285.1,397.77c-2.1.3-4.95,3.16-5.23,5.22l5.23-5.22ZM218.56,404.49c-.49-2.29-3.62-5.44-5.97-5.97l5.97,5.97ZM287.35,399.27c-2.49.38-4.48,3.4-5.98,5.22,2.49-.38,4.48-3.4,5.98-5.22ZM217.82,405.98c.41-.37-6.77-6.6-7.48-5.96.36,1.33,6.76,6.6,7.48,5.96ZM289.59,400.76c-2.39.9-6.32,3.29-6.72,5.97l6.72-5.97ZM216.32,407.47c-1.94-2-4.74-4.48-7.48-5.22,1.74,2.14,4.72,4.74,7.48,5.22ZM291.08,403c-2.65.87-5.86,2.98-7.48,5.22,2.65-.87,5.86-2.98,7.48-5.22ZM214.82,408.24l-7.47-3.74,7.11,5.22.36-1.48ZM292.58,405.25c-2.54.66-5.43,2.54-7.57,4.04-.9.63-1.83.03-1.4,1.94l8.96-5.97ZM213.33,411.21c-1.39-2.39-4.86-3.8-7.48-4.47l7.48,4.47ZM294.07,407.49c-2.06.04-4.25,1.57-5.99,2.62-.94.57-1.9-.15-1.47,1.86l7.46-4.48ZM214.08,414.2c-2.12-2.52-5.83-4.37-8.97-5.22,1.79,2.74,5.91,4.22,8.97,5.22ZM246.76,433.42c1.95-1.93,4.97-13.89,5.13-16.92.09-1.66-2.24-2.07-1.92-3.4l2.98-2.25c-4.31-5.03-12.06.28-11.98,6,.03,2.1,1.79,3.45,1.52,5.58-.93.94-8.66-5.51-13.78.05-6.19,6.72,1.68,15.95,10.05,13.41l-2.99,3.73c3.75-.46,4.17-3.23,5.61-5.97l1.49,2.23c.67-1.67,3.27-1.83,3.89-2.45ZM294.82,409.73l-7.47,3.72c2.51-.17,5.93-1.63,7.47-3.72ZM211.83,414.22l-8.22-2.99c.87,1.48,3.67,2.86,5.21,3.38.71.24,3.13,1.08,3.01-.39ZM267.16,424.67c-1.63.06-4.16,1.01-5.99,1.11l.76,2.62c-2.04.72-1.32-1.29-1.53-1.43-1.57-1.02-1.29,1.02-2,1.41-.86.48-2.38.33-3.27,1.15l.08,1.86c-4.13-1.07-2.67,2.02-4.26,3.08-1.08.72-2.81.06-3.79.43-.18.07-2.93,1.28-3.11,1.36-1.95.96-3.54,3.21-6.03,3.36l1.5,1.22c.35,2.33,0,3.2-2.51,2.5-.67-.19-.2-2.52-2.77-1.12-3.76,2.04.56,12.76,9.02,10.49,6.48-1.73,2.92-8.13,8.2-8.61-.62,3.68,1.92,7.59,5.65,8.18,1.24.19,5.27-.2,5.54.08.29.31-.49,3.65,2.06,4.35,4.78,1.31,6.56-6.29,1.71-4.39l1.49-1.11-2.99-1.13c3.88-4.35,1.87-12.59-4.49-12.71l.76-2.99c12.45,4.42,15.36-15.4,2.6-15-3.66.11-4.47,1.81-7.09,3.8-1.39-2.65.82-5.02.42-7.52-.93-5.77-5.78-3.42-1.97,1.83-4.16,2.56-2.29,3.22-3,6.76-.43,2.15-1.74,4.09-1.44,6.41,1.88.49,1.68-1.47,2.39-2.01.29-.22,2.44,1.02,2.1-2.48l2.97.43c2.07-.99-.06-4.27,5.08-5.45,1.18-.27,2.6.66,3.89-.21,0,1.24.03,2.5,0,3.74,6.42-.26.42,5.68-.69,1.79-.19-.66.69-1.49.69-1.79ZM296.32,411.97c-1.49-.01-2.88.81-4.23,1.37-1.07.44-3.61,1.26-3.99,2.36,2.6-.36,6.39-1.74,8.22-3.72ZM211.09,416.46l-8.21-3c-.41,2.14.58,1.2,1.63,1.69,1.11.51,2.6,1.2,3.73,1.54.7.21,2.98,1.27,2.85-.23ZM297.07,414.21c-2.54,1.05-6.51,1.56-8.22,3.72,2.64-.46,6.64-1.47,8.22-3.72ZM210.34,418.7l-8.21-2.24,5.94,2.65,2.27-.41ZM297.81,417.2c-2.03-.12-3.99.55-5.83,1.3-1.12.46-2.03-.45-1.64,1.68l7.47-2.98ZM209.6,421.67c-1.6-2.25-5.73-2.09-8.22-2.97,1.6,2.1,5.75,2.42,8.22,2.97ZM298.56,419.45c-1.9.18-4.04.65-5.83,1.3-1.19.43-2.01-.4-1.64,1.68l7.46-2.98ZM208.85,423.92c-1.63-2.59-5.77-1.58-8.22-2.98-.36,2.14.45,1.24,1.72,1.6,2.1.58,4.37.89,6.49,1.39ZM299.31,421.69l-8.22,2.23c2.51-.04,6.66.15,8.22-2.23ZM357.62,423.18h-2.98v2.98h2.98v-2.98ZM370.33,426.16c.35-3.98-3.34-3.95-2.98,0h2.98ZM208.1,424.67l-8.22-.74,7.28,2.07.94-1.33ZM300.05,424.68c-1.34-.08-2.67-.05-4.01.09-.85.09-4.11.33-4.2,1.39l8.22-1.48ZM208.1,428.4c-1.49-2.65-5.7-.91-8.22-2.23-.31,2.1.37,1.38,1.86,1.49,2.2.15,4.19.01,6.36.75ZM300.06,426.92l-8.22,1.48c2.51-.39,6.76,1.24,8.22-1.48ZM207.35,429.16c-1.86.05-3.75-.08-5.61,0-.91.04-2.78-.57-2.6.74,2.56-.29,4.79.13,7.28.59,1.44.27.91-.06.94-1.33ZM300.06,429.9h-13.08c-.13,0-1.18,1.01-1.12,1.49l1.13.03,13.07-1.52ZM207.35,431.4c-.47-.08-10.07-.49-7.47,1.49.47.08,10.07.49,7.47-1.49ZM149.79,434.01v11.58h-11.22c-1.62,1.55,4.01,21.72,5.21,25.06.79,2.19,4.88,12.05,5.96,13.29.8.91,2.82.74,3.84,2.33,1.12,1.75.82,5.33,2.31,8.16,3.7,7.05,17.64,20.76,24.18,25.89,1.66,1.3,7.29,5.6,8.8,6.16,1.98.74,4.81.25,5.81.92.69.46.75,2.23,1.43,3.05,3.68,4.46,24.67,9.39,30.85,11.01,1.19.31,2.1,1.72,3.34,1.91,1.56.25,3.68-1.05,5.46-.62v-11.21l12.7-.75.45-41.87c-3.3-2.36-7.43-.99-11.11-1.65-.82-.15-8.49-2.76-9.54-3.17-13.86-5.44-24.19-17.96-30.02-31.27-3.05-6.95-3.68-12.61-4.79-20.03-5.1-1.87-10.71.01-15.61.12-7.9.17-18-.95-25.49-.07-1.09.13-1.92.09-2.58,1.16ZM300.05,432.15c-1.86.04-3.75-.09-5.61,0-.91.04-2.78-.57-2.6.74,1.86-.04,3.75.09,5.61,0,.91-.04,2.78.57,2.6-.74ZM348.28,432.89h-41.87l-1,1.24c-1.25,6.83-2.28,18.82-6.19,24.45-.84,1.21-2.41,1.54-3.26,2.72-9.12,12.76-15.67,19.17-31.23,24.09-3.21,1.02-10.84,1.28-12.15,4.3l-1.13,41.1h11.97s0,10.83,0,10.83c0,.77,1.75,1.16,2.58,1.16,2.13,0,10.42-2.1,12.98-2.79,1.47-.4,2.53-1.66,3.8-2.04,5.61-1.69,15.16-3.36,19.81-7.25,1.42-1.19,1.41-3.42,2.68-4.05,1.33-.66,3.4-.18,5.22-.76,2.9-.93,13.09-9.41,15.75-11.91,2.85-2.69,18.59-20.93,19.28-23.33.48-1.67-.35-4.26.49-5.49.42-.61,2.35-.84,3.42-1.81.8-.72,3.27-4.82,3.74-5.97,2.22-5.46,7.3-24.43,7.46-29.99.02-.58.17-1.17-.1-1.72l-11.88-1.57c-.92-2.32,1.9-10.52-.37-11.21ZM214.08,433.65h-6.34s-8.6,1.48-8.6,1.48h7.84s7.11-1.48,7.11-1.48ZM300.05,435.14l-8.22-.75c.12,1.2,3.21,1.4,4.12,1.48.86.08,4.1.62,4.1-.73ZM208.1,435.89l-8.22,1.48c2.51-.39,6.76,1.24,8.22-1.48ZM356.87,438.87c.27-4.52-4.47-3.59-1.11,0h1.11ZM370.33,438.12l-1.88-2.23h-1.11s0,2.23,0,2.23h2.99ZM300.05,437.38l-8.22-.75c.02,1.28,2.46,1.4,3.36,1.49s4.67.59,4.86-.74ZM359.86,438.13h-1.49v.73h1.49v-.73ZM207.35,438.88c-1.56-.1-3.09-.06-4.65.21-.79.13-2.97.19-2.82,1.27l7.47-1.48ZM299.31,441.11c-1.45-2.3-5.82-1.68-8.22-2.23,1.5,2.24,5.79,1.18,8.22,2.23ZM208.1,441.86l-.36-1.48-7.11,2.22,7.48-.74ZM299.3,442.61l-8.22-1.5c.59,1.42,4.37,1.85,5.81,2.03.82.1,2.57.84,2.4-.54ZM208.1,443.36c-2.14.21-6.11.35-7.47,2.23l7.47-2.23ZM297.81,444.86l-7.47-1.5c.48,1.31,3.84,1.86,5.05,2.05.8.12,2.6.8,2.42-.55ZM209.6,444.86l-8.22,2.97c2.47-.56,6.61-.86,8.22-2.97ZM297.81,447.85l-8.21-2.24,6.14,2.45,2.08-.21ZM210.34,447.1l-7.47,2.98c1.21.12,2.28-.35,3.39-.71,1.04-.33,3.76-1.14,4.07-2.27ZM297.06,450.09l-8.21-2.24,5.93,2.66,2.29-.42ZM211.09,449.34c-1.3-.26-2.19.44-3.26.84-.85.32-3.32,1.18-3.46,2.13l6.72-2.98ZM295.57,452.33l-6.72-2.25c.56,1.06,3.36,2.24,4.45,2.64.7.26,2.43.98,2.26-.4ZM211.84,452.31l-.36-1.48-7.11,4.47,7.47-2.99ZM294.07,454.57l-8.22-3.74c1.23,1.71,4.28,3.12,6.19,3.89.67.27,2.15,1.33,2.02-.15ZM211.09,456.06l1.14-2.98c-1.63,1.43-3.92,2.2-5.6,3.37-2,1.39,1.8,1.15,2.23,1.1l.93.63c.3-.06.4-.57.57-.63,1.03-.38,4.66-1.5,3.35-2.25-.84.33-1.77.45-2.61.76ZM292.58,457.55c-1.21-1.68-4.01-3.16-5.98-3.72,1.21,1.68,4.01,3.16,5.98,3.72ZM291.83,459.06l-5.97-3,5.61,4.47.36-1.48ZM214.83,457.56c-.94-.5-2.61,1.2-2.24,1.48.94.5,2.61-1.2,2.24-1.48ZM285.1,457.56h-1.49v.73h1.49v-.73ZM208.1,459.06h-1.49v.73h1.49v-.73ZM284.36,460.54c.36-.28-1.31-1.98-2.24-1.48-.36.28,1.31,1.98,2.24,1.48ZM290.34,462.03c-.82-1.34-2.88-2.89-4.49-2.97.82,1.34,2.88,2.89,4.49,2.97ZM211.84,459.8h-1.49v.73h1.49v-.73ZM215.58,459.8c-1.35-.25-2.45,1.01-2.99,2.23,1.35.25,2.45-1.01,2.99-2.23ZM285.85,465.02c.24-.21-3.53-4.56-4.49-3.72.36.94,3.6,4.5,4.49,3.72ZM220.06,462.05c-2.76.61-4.96,3.92-6.73,5.96,2.76-.61,4.96-3.92,6.73-5.96ZM288.84,464.27c-.54-1.22-1.64-2.47-2.99-2.23.54,1.22,1.64,2.47,2.99,2.23ZM211.84,462.79h-1.49s0,1.49,0,1.49l1.49-1.49ZM214.83,463.54c-1.35-.25-2.45,1.01-2.99,2.23,1.35.25,2.45-1.01,2.99-2.23ZM281.36,468.02c.2-1.57-1.61-2.94-2.98-3.74-.2,1.57,1.61,2.94,2.98,3.74ZM277.62,467.27c.5-.94-1.2-2.6-1.48-2.24-.5.94,1.2,2.6,1.48,2.24ZM220.07,468.76c1.22-.54,2.47-1.64,2.23-2.99-1.22.54-2.47,1.64-2.23,2.99ZM223.06,468.76c.28.36,1.98-1.31,1.48-2.24-.28-.36-1.98,1.31-1.48,2.24ZM275.38,472.5c-.32-2.13-1.96-4.73-3.72-5.97l3.72,5.97ZM275.37,466.53l-1.48.36,2.98,3.37-1.5-3.73ZM222.31,474c1.85-1.56,3.82-4.39,4.47-6.73-1.85,1.56-3.82,4.39-4.47,6.73ZM227.53,476.98l3.74-8.96-3.89,6.94.15,2.02ZM280.61,471.01c.25-1.35-1.01-2.45-2.23-2.99-.25,1.35,1.01,2.45,2.23,2.99ZM225.29,475.49l2.99-6.72-3.15,4.69.15,2.02ZM252.21,482.22v-13.45h-.75v13.45h.75ZM220.82,471.75c.28.36,1.98-1.31,1.48-2.24-.28-.36-1.98,1.31-1.48,2.24ZM274.63,476.23c-.59-2.24-1.74-5.41-3.72-6.72l3.72,6.72ZM271.64,476.23c-.02-2.08-1.08-4.9-2.98-5.97l2.98,5.97ZM270.15,478.48c-.83-2.33-1.77-5.87-3.72-7.47.01,1.61,1.16,3.05,1.88,4.47.49.96.74,2.96,1.84,3ZM279.12,473.25c.5-.94-1.2-2.6-1.48-2.24-.5.94,1.2,2.6,1.48,2.24ZM229.77,477.73l2.25-5.97c-1,.35-2.02,2.98-2.4,3.95-.26.67-1.35,2.14.15,2.02ZM232.01,479.22l2.24-7.46-2.47,5.37.22,2.09ZM235.01,479.22l1.5-6.72c-.98.33-1.7,3.5-1.9,4.45-.17.77-1,2.43.41,2.27ZM264.91,479.97l-2.23-7.47c-.23,1.28.26,2.38.53,3.57.2.89.71,3.78,1.7,3.9ZM267.15,478.48c.25-1.46-.62-2.53-1.09-3.77-.34-.9.02-2.38-1.14-2.2-.25,1.46.62,2.53,1.09,3.77.34.9-.02,2.38,1.14,2.2ZM237.25,480.72l1.5-7.47-2.07,5.03.57,2.44ZM262.67,481.47c0-1.81-.71-3.48-1.15-5.2-.26-1,.15-3.13-1.08-3.02l.83,4.77,1.4,3.44ZM276.87,474.74v-1.49h-.73v1.49h.73ZM239.49,481.47l1.5-7.46c-1.15.6-1.68,3.94-1.91,5.19-.14.77-.98,2.45.41,2.28ZM242.48,480.72l.75-6.72c-1.04.07-1.34,3.42-1.4,4.2-.07.84-.7,2.68.65,2.52ZM244.73,482.21l.75-8.21-1.48,5.62.73,2.6ZM257.44,482.21l-.52-5.08-.96-3.13c-.29,1.73.38,3.3.65,4.95.17,1.05-.48,3.37.83,3.26ZM259.68,479.97c-.28-1.51,0-5.16-1.48-5.97.29,1.51-.02,5.12,1.48,5.97ZM247.72,479.97v-5.22h-.73v5.22h.73ZM249.96,482.96c-.04-1.86.09-3.75,0-5.61-.04-.91.57-2.78-.74-2.6.04,1.86-.09,3.75,0,5.61.04.91-.57,2.78.74,2.6ZM254.44,479.22v-4.48h-.73v4.48h.73ZM255.19,482.21v-2.23h-.73v2.23h.73ZM246.97,482.21v-1.49h-.73v1.49h.73Z"/>
      <path d="M211.09,456.06c-.32.31-.61,1.42-.75,1.49-.23.12-1.02-.06-1.5,0,.16-1.33,1.37-1.18,2.24-1.49Z"/>
      <path d="M240.25,313.31h-2.98s-.01-8.22-.01-8.22c9.07-.44,17.97.88,26.92,0,.36.36-.29,8.44-.04,10.13s1.7,3.03,1.58,4.39c-.04.47-1.26.44-1.54.93-1.64,2.79-.34,8.18-.75,11.46-3.23,1.41-4.43-2.15-5.01-2.28-.81-.17-2.68.93-3.9-.04l-.07-2.92c-2.09-.42-1.46.77-1.5,2.25h-5.97c-.22-4.48,6.39-6.58,9.27-4.57.87.61-.07,3.13,1.56,2.32,1.92-.95,2.76-6.32.73-6.72-.88-.17-5.73,2.73-7.54,2.98-2.64.37-1.93-2.01-2.86-2.12-3.86-.46-4.61,6.02-4.16,8.85-2.95.54-.92-5.01-1.5-6.72l-.74,6.73h-2.24c-.44-1.05.74-2.24.74-2.62v-13.83ZM242.49,311.81v-1.49s-1.49,1.12-1.49,1.12l1.49.37ZM247.72,310.32l-2.24.53-1.44,5.4c1.73.68,2.89,1.15,4.04-.66l-.36-5.27ZM261.18,311.07c-3.83.41-2.81,3.3-2.23,5.97l2.11-1.25.13-4.73ZM253.7,314.06v-2.23h-.73v2.23h.73ZM245.48,320.05h-1.49v.73h1.49v-.73Z"/>
      <path d="M252.21,332v42.97c0,.16,1.12.85.75,1.11h-3.74c-.15-6.58.2-13.23.03-19.83-.15-5.71.03-14.77-.82-20.11-.69-4.38-4.44-3.27-4.45-3.78l8.23-.37Z"/>
      <path class="st0" d="M149.79,434.01c.66-1.07,1.49-1.03,2.58-1.16,7.48-.88,17.59.24,25.49.07,4.89-.11,10.51-1.98,15.61-.12,1.11,7.42,1.74,13.08,4.79,20.03,5.83,13.31,16.16,25.84,30.02,31.27,1.05.41,8.72,3.02,9.54,3.17,3.68.66,7.8-.72,11.11,1.65l-.45,41.87-12.7.75v11.21c-1.78-.43-3.9.86-5.46.62-1.24-.2-2.15-1.6-3.34-1.91-6.19-1.62-27.17-6.55-30.85-11.01-.68-.82-.75-2.59-1.43-3.05-1-.67-3.83-.18-5.81-.92-1.51-.56-7.14-4.86-8.8-6.16-6.54-5.14-20.48-18.84-24.18-25.89-1.48-2.82-1.18-6.4-2.31-8.16-1.02-1.59-3.05-1.41-3.84-2.33-1.08-1.24-5.17-11.1-5.96-13.29-1.2-3.34-6.83-23.51-5.21-25.06h11.22s0-11.58,0-11.58Z"/>
      <path class="st0" d="M348.28,432.89c2.27.69-.55,8.9.37,11.21l11.88,1.57c.27.56.11,1.14.1,1.72-.16,5.55-5.24,24.52-7.46,29.99-.47,1.16-2.95,5.25-3.74,5.97-1.07.97-3,1.2-3.42,1.81-.84,1.23,0,3.82-.49,5.49-.69,2.4-16.43,20.64-19.28,23.33-2.65,2.5-12.85,10.98-15.75,11.91-1.82.58-3.88.1-5.22.76s-1.25,2.86-2.68,4.05c-4.65,3.89-14.2,5.56-19.81,7.25-1.27.38-2.32,1.64-3.8,2.04-2.57.69-10.85,2.79-12.98,2.79-.83,0-2.58-.39-2.58-1.16v-10.84h-11.97s1.13-41.1,1.13-41.1c1.31-3.02,8.93-3.28,12.15-4.3,15.56-4.92,22.11-11.32,31.23-24.09.85-1.19,2.42-1.52,3.26-2.72,3.91-5.63,4.94-17.63,6.19-24.45l1-1.24h41.87Z"/>
      <path class="st0" d="M267.16,424.67c.02-1.24,0-2.5,0-3.74-1.3.87-2.71-.06-3.89.21-5.14,1.18-3.01,4.46-5.08,5.45l-2.97-.43c.34,3.49-1.81,2.26-2.1,2.48-.72.54-.52,2.5-2.39,2.01-.3-2.32,1.01-4.25,1.44-6.41.71-3.54-1.16-4.2,3-6.76-3.81-5.24,1.03-7.6,1.97-1.83.4,2.49-1.81,4.87-.42,7.52,2.62-1.99,3.42-3.69,7.09-3.8,12.75-.39,9.84,19.42-2.6,15l-.76,2.99c6.36.12,8.37,8.36,4.49,12.71l2.99,1.13-1.49,1.11c4.84-1.9,3.07,5.69-1.71,4.39-2.55-.7-1.77-4.04-2.06-4.35-.26-.27-4.29.12-5.54-.08-3.73-.58-6.27-4.5-5.65-8.18-5.28.48-1.72,6.88-8.2,8.61-8.46,2.26-12.78-8.45-9.02-10.49,2.57-1.4,2.1.93,2.77,1.12,2.5.71,2.86-.17,2.51-2.5l-1.5-1.22c2.49-.16,4.08-2.4,6.03-3.36.18-.09,2.93-1.29,3.11-1.36.98-.37,2.71.29,3.79-.43,1.59-1.06.13-4.15,4.26-3.08l-.08-1.86c.88-.82,2.4-.67,3.27-1.15.71-.4.44-2.44,2-1.41.22.14-.51,2.16,1.53,1.43l-.76-2.62c1.84-.1,4.36-1.04,5.99-1.11,0,.3-.88,1.13-.69,1.79,1.12,3.89,7.11-2.05.69-1.79ZM266.8,428.41c-1.83.41-1.3,4.19.73,3.73,1.83-.41,1.3-4.19-.73-3.73ZM264.17,429.91c-3.98-.35-3.95,3.34,0,2.98v-2.98ZM258.19,434.39h-1.48s-.75,2.98-.75,2.98c1.88.2,2.52-1.19,2.24-2.98ZM249.22,436.64h-1.49v.73h1.49v-.73ZM261.18,439.62h-2.98s0,2.23,0,2.23c1.38.17,2.19.05,2.98-1.13v-1.11ZM251.46,440.37h-3.73c-.02,2.69,1.7,2.23,3.73,1.48v-1.48ZM242.49,441.12l-2.24.37,1.13,1.12h1.11s0-1.48,0-1.48ZM262.31,441.12c-1.95.53-1.06,3.66,1.48,2.97,1.95-.53,1.06-3.66-1.48-2.97ZM257.44,441.87h-1.49s-.76,2.23-.76,2.23h1.49s.76-2.23.76-2.23ZM246.98,444.11l-2.62-1.49c-2.16,1.31-.68,3.48,1.47,2.95l1.15-1.46ZM236.15,444.11c-1.83.41-1.3,4.19.73,3.73,1.83-.41,1.3-4.19-.73-3.73ZM254.84,444.85c-1.83.41-1.3,4.19.73,3.73,1.83-.41,1.3-4.19-.73-3.73ZM264.17,445.6h-2.98v2.98h2.98v-2.98ZM245.48,447.1c-.42-.42-3.7.1-3.72,1.12-.09,3.9,5.62.8,3.72-1.12ZM258.57,447.09c-2.67.6-1.22,4.17.73,3.73,1.83-.42,1.3-4.18-.73-3.73ZM240.99,447.84h-2.98c-.34,2.85.02,4.17,2.63,2.26l.35-2.26ZM264.91,453.07v-1.49h-.73v1.49h.73ZM267.91,454.57h-1.49v.73h1.49v-.73Z"/>
      <path class="st0" d="M246.76,433.42c-.62.62-3.22.78-3.89,2.45l-1.49-2.23c-1.45,2.74-1.86,5.51-5.61,5.97l2.99-3.73c-8.36,2.54-16.24-6.7-10.05-13.41,5.12-5.56,12.86.89,13.78-.05.27-2.13-1.49-3.48-1.52-5.58-.08-5.72,7.67-11.02,11.98-6l-2.98,2.25c-.32,1.33,2.01,1.73,1.92,3.4-.16,3.03-3.18,15-5.13,16.92ZM246.23,414.2c3.98.35,3.95-3.34,0-2.98v2.98ZM246.22,414.96c-.32-.32-3.94-.72-2.98,1.86,1.07,2.88,4.21-.63,2.98-1.86ZM247.72,418.7c-1.7-.26-3.19.31-2.98,2.23.6-.36,3.7-1.91,2.98-2.23ZM234.26,425.41c.35-3.98-3.34-3.95-2.98,0h2.98ZM238.75,423.18c-.32-.32-3.94-.72-2.98,1.86,1.07,2.88,4.21-.63,2.98-1.86ZM242.5,427.66c.28.36,1.98-1.31,1.48-2.24-.28-.36-1.98,1.31-1.48,2.24ZM229.04,429.15c3.98.35,3.95-3.34,0-2.98v2.98ZM230.53,432.89c.64.89,3.69.76,2.98-1.86s-4.24.11-2.98,1.86ZM237.26,430.66h-2.24c-.34,2.37.77,3.32,2.99,2.98l-.75-2.98Z"/>
      <path class="st0" d="M248.47,382.07v14.95l-1.53-10.8c.36-1.56-1.09-4.74,1.53-4.15Z"/>
      <path class="st0" d="M269.39,397.02c-1.06.07-1.8.36-1.42-1.04.59-2.14,3.45-6.97,5.16-8.67l-3.74,9.71Z"/>
      <polygon class="st0" points="214.08 433.65 206.97 435.13 199.13 435.13 207.73 433.65 214.08 433.65"/>
      <path class="st0" d="M300.06,429.9l-13.07,1.52-1.13-.03c-.05-.48.99-1.49,1.12-1.49h13.08Z"/>
      <path class="st0" d="M228.28,398.51c-2.56-2.05-5.06-5.75-5.97-8.97,2.56,2.05,5.06,5.75,5.97,8.97Z"/>
      <path class="st0" d="M214.08,414.2c-3.06-1-7.18-2.48-8.97-5.22,3.14.85,6.85,2.7,8.97,5.22Z"/>
      <path class="st0" d="M257.44,391.04c-1.3-.04-1.56.5-1.32-.94.45-2.67.97-5.43,1.7-8.02,2.08,2.25-.51,6.28-.38,8.97Z"/>
      <path class="st0" d="M259.68,391.79c-2.57-1.03-.13-7.76,1.5-8.97l-1.5,8.97Z"/>
      <path class="st0" d="M220.06,402.25c-1.01.99-5.91-4.71-5.98-5.97.9-.83,6.81,5.14,5.98,5.97Z"/>
      <path class="st0" d="M266.41,393.28c-3.08.83-.18-4.85.4-5.96.45-.86.68-2.07,1.85-2.26l-2.24,8.22Z"/>
      <path class="st0" d="M207.35,431.4c2.6,1.98-7,1.57-7.47,1.49-2.6-1.98,7-1.57,7.47-1.49Z"/>
      <path class="st0" d="M261.92,391.79c-2.47,2.67-.31-5.07-.09-5.71.34-.97.21-2.28,1.59-2.51l-1.5,8.22Z"/>
      <path class="st0" d="M266.41,384.32c.22.27-1.66,5.6-2.05,6.57-.45,1.14.43,2.02-1.68,1.64.69-2.1,1.1-4.73,1.9-6.72.48-1.2-.07-1.83,1.83-1.49Z"/>
      <path class="st0" d="M221.54,391.04l4.5,7.46c-1.6.39-1.67-.89-2.41-1.7-.84-.93-5.69-6.45-2.09-5.76Z"/>
      <path class="st0" d="M230.52,385.81l3,8.21c-2.16.42-1.19-.62-1.68-1.64-.62-1.29-4.49-7.41-1.31-6.57Z"/>
      <path class="st0" d="M276.13,388.8c-.96,2.07-2.13,4.08-3.38,5.98-.24.37-.66,2.92-1.85,1.48-.45-.54,3.97-8.71,5.23-7.46Z"/>
      <path class="st0" d="M292.58,405.25l-8.96,5.97c-.43-1.91.5-1.31,1.4-1.94,2.14-1.49,5.03-3.38,7.57-4.04Z"/>
      <path class="st0" d="M235.76,393.27c-2.01.39-1.3-.44-1.83-1.5-.97-1.95-2.01-4.49-1.9-6.72,2.49,1.7,2.19,5.76,3.73,8.21Z"/>
      <polygon class="st0" points="235.75 384.31 237.25 392.53 234.29 385.39 235.75 384.31"/>
      <polygon class="st0" points="255.19 391.03 254.43 384.66 255.94 382.07 255.19 391.03"/>
      <path class="st0" d="M243.98,391.04c-1.06.18-1.08-1.32-1.27-2.07-.52-2.11-.7-4.71-.96-6.89,2.38,1.73,2.07,6.32,2.23,8.96Z"/>
      <path class="st0" d="M229.03,396.27c-1.12-.41-2.07-2.66-2.62-3.72-.72-1.4-1.81-2.91-1.85-4.49,2.28,1.89,4.34,5.24,4.47,8.22Z"/>
      <path class="st0" d="M274.64,397.02l-1.49.75c-.72-1.11,3.84-8.78,5.23-7.47l-3.74,6.72,5.23-5.23c-.21,1.54-3.95,7.65-5.19,6.67l-.04-1.44Z"/>
      <path class="st0" d="M241.74,391.78c-1.08.17-1.03-1.32-1.26-2.09-.61-2.15-1-4.63-.97-6.87,1.08-.17,1.03,1.32,1.26,2.09.61,2.15,1,4.63.97,6.87Z"/>
      <path class="st0" d="M210.34,457.55c-.17.06-.27.58-.57.63l-.93-.63c.48-.06,1.27.12,1.5,0Z"/>
      <path class="st0" d="M208.85,457.55c-.42.05-4.22.29-2.23-1.1,1.68-1.17,3.97-1.95,5.6-3.37l-1.14,2.98c-.87.32-2.09.16-2.24,1.49Z"/>
      <path class="st0" d="M211.09,456.06c.84-.31,1.77-.42,2.61-.76,1.31.75-2.32,1.87-3.35,2.25.14-.07.43-1.19.75-1.49Z"/>
      <rect class="st0" x="251.46" y="468.76" width=".75" height="13.45"/>
      <path class="st0" d="M267.17,394.03c.18-2.5,1.63-5.94,3.72-7.47-.18,2.5-1.63,5.94-3.72,7.47Z"/>
      <path class="st0" d="M228.27,387.3l2.99,7.47c-2.45-1.59-3.2-4.7-4.47-7.11l1.47-.36Z"/>
      <path class="st0" d="M276.13,400c-.33-.31,4.69-6.49,5.97-6.72.52.57-4.9,7.71-5.97,6.72Z"/>
      <polygon class="st0" points="217.81 394.78 222.3 401.5 216.33 395.89 217.81 394.78"/>
      <polygon class="st0" points="238 383.56 239.49 391.78 236.62 384.56 238 383.56"/>
      <path class="st0" d="M217.82,405.98c-.72.64-7.12-4.63-7.48-5.96.7-.64,7.89,5.59,7.48,5.96Z"/>
      <path class="st0" d="M246.22,391.04c-1.11.05-1.29-2.64-1.4-3.45-.23-1.83-.07-3.68-.08-5.51,1.05.09,1.31,3.36,1.39,4.2.16,1.59.14,3.17.09,4.76Z"/>
      <path class="st0" d="M211.83,414.22c.12,1.47-2.3.63-3.01.39-1.54-.52-4.34-1.9-5.21-3.38l8.22,2.99Z"/>
      <path class="st0" d="M213.33,411.21l-7.48-4.47c2.62.67,6.08,2.08,7.48,4.47Z"/>
      <path class="st0" d="M253.7,382.07l-1.48,8.21c.19-2.27-.29-4.9,0-7.11.14-1.09.56-2.31,1.49-1.1Z"/>
      <polygon class="st0" points="214.82 408.24 214.46 409.72 207.35 404.5 214.82 408.24"/>
      <path class="st0" d="M291.08,403c-1.62,2.24-4.82,4.34-7.48,5.22,1.62-2.24,4.82-4.34,7.48-5.22Z"/>
      <path class="st0" d="M223.79,400.01c-.38.43-5.46-5.36-5.22-6.73,1.34.35,5.94,5.9,5.22,6.73Z"/>
      <path class="st0" d="M216.32,407.47c-2.76-.47-5.74-3.07-7.48-5.22,2.73.74,5.53,3.21,7.48,5.22Z"/>
      <path class="st0" d="M297.07,414.21c-1.58,2.25-5.58,3.26-8.22,3.72,1.72-2.17,5.68-2.67,8.22-3.72Z"/>
      <path class="st0" d="M220.06,462.05c-1.76,2.05-3.97,5.36-6.73,5.96,1.76-2.05,3.97-5.36,6.73-5.96Z"/>
      <path class="st0" d="M289.59,400.76l-6.72,5.97c.4-2.68,4.33-5.07,6.72-5.97Z"/>
      <rect class="st0" x="354.64" y="423.18" width="2.98" height="2.98"/>
      <path class="st0" d="M294.07,407.49l-7.46,4.48c-.43-2.01.53-1.29,1.47-1.86,1.74-1.05,3.94-2.59,5.99-2.62Z"/>
      <path class="st0" d="M211.09,416.46c.13,1.5-2.15.44-2.85.23-1.13-.33-2.63-1.02-3.73-1.54s-2.04.45-1.63-1.69l8.21,3Z"/>
      <path class="st0" d="M300.05,435.14c0,1.35-3.24.81-4.1.73-.91-.08-3.99-.27-4.12-1.48l8.22.75Z"/>
      <path class="st0" d="M208.85,423.92c-2.12-.5-4.39-.8-6.49-1.39-1.27-.35-2.09.55-1.72-1.6,2.44,1.4,6.59.4,8.22,2.98Z"/>
      <path class="st0" d="M296.32,411.97c-1.83,1.98-5.62,3.37-8.22,3.72.38-1.09,2.91-1.92,3.99-2.36,1.36-.55,2.74-1.38,4.23-1.37Z"/>
      <polygon class="st0" points="208.1 424.67 207.16 426 199.88 423.93 208.1 424.67"/>
      <path class="st0" d="M218.56,404.49l-5.97-5.97c2.35.53,5.48,3.68,5.97,5.97Z"/>
      <path class="st0" d="M209.6,421.67c-2.47-.56-6.62-.87-8.22-2.97,2.49.88,6.63.72,8.22,2.97Z"/>
      <polygon class="st0" points="211.84 452.31 204.36 455.3 211.47 450.83 211.84 452.31"/>
      <path class="st0" d="M300.06,426.92c-1.46,2.72-5.71,1.09-8.22,1.48l8.22-1.48Z"/>
      <path class="st0" d="M294.82,409.73c-1.54,2.1-4.96,3.55-7.47,3.72l7.47-3.72Z"/>
      <path class="st0" d="M208.1,428.4c-2.17-.74-4.16-.59-6.36-.75-1.49-.1-2.17.62-1.86-1.49,2.52,1.33,6.73-.41,8.22,2.23Z"/>
      <path class="st0" d="M278.38,401.5c.38-2.48,3.4-4.48,5.22-5.98-.38,2.48-3.4,4.48-5.22,5.98Z"/>
      <path class="st0" d="M287.35,399.27c-1.5,1.82-3.49,4.84-5.98,5.22,1.5-1.82,3.49-4.84,5.98-5.22Z"/>
      <path class="st0" d="M370.33,426.16h-2.98c-.36-3.95,3.33-3.98,2.98,0Z"/>
      <polygon class="st0" points="210.34 418.7 208.06 419.11 202.12 416.46 210.34 418.7"/>
      <path class="st0" d="M299.31,421.69c-1.56,2.38-5.71,2.19-8.22,2.23l8.22-2.23Z"/>
      <path class="st0" d="M299.31,441.11c-2.43-1.05-6.72.02-8.22-2.23,2.4.55,6.77-.07,8.22,2.23Z"/>
      <path class="st0" d="M207.35,429.16c-.03,1.26.5,1.59-.94,1.33-2.49-.46-4.72-.89-7.28-.59-.17-1.31,1.7-.7,2.6-.74,1.86-.08,3.75.05,5.61,0Z"/>
      <path class="st0" d="M300.05,424.68l-8.22,1.48c.09-1.06,3.35-1.31,4.2-1.39,1.34-.14,2.67-.16,4.01-.09Z"/>
      <path class="st0" d="M298.56,419.45l-7.46,2.98c-.37-2.09.44-1.26,1.64-1.68,1.79-.64,3.93-1.12,5.83-1.3Z"/>
      <path class="st0" d="M285.1,397.77l-5.23,5.22c.27-2.06,3.12-4.93,5.23-5.22Z"/>
      <path class="st0" d="M297.81,417.2l-7.47,2.98c-.39-2.13.52-1.22,1.64-1.68,1.83-.75,3.8-1.42,5.83-1.3Z"/>
      <path class="st0" d="M300.05,437.38c-.19,1.34-3.93.84-4.86.74s-3.34-.22-3.36-1.49l8.22.75Z"/>
      <polygon class="st0" points="208.1 441.86 200.63 442.6 207.74 440.38 208.1 441.86"/>
      <path class="st0" d="M297.81,444.86c.18,1.35-1.62.68-2.42.55-1.21-.19-4.57-.74-5.05-2.05l7.47,1.5Z"/>
      <path class="st0" d="M208.1,435.89c-1.46,2.72-5.71,1.09-8.22,1.48l8.22-1.48Z"/>
      <path class="st0" d="M207.35,438.88l-7.47,1.48c-.15-1.08,2.03-1.14,2.82-1.27,1.55-.26,3.09-.3,4.65-.21Z"/>
      <path class="st0" d="M250.71,390.29c-1.31.17-.7-1.69-.74-2.6-.08-1.86.05-3.75,0-5.61,1.31-.17.7,1.69.74,2.6.08,1.86-.05,3.75,0,5.61Z"/>
      <path class="st0" d="M271.64,476.23l-2.98-5.97c1.9,1.08,2.96,3.89,2.98,5.97Z"/>
      <path class="st0" d="M249.96,482.96c-1.31.17-.7-1.69-.74-2.6-.08-1.86.05-3.75,0-5.61,1.31-.17.7,1.69.74,2.6.08,1.86-.05,3.75,0,5.61Z"/>
      <path class="st0" d="M300.05,432.15c.17,1.31-1.7.7-2.6.74-1.86.08-3.75-.05-5.61,0-.17-1.31,1.7-.7,2.6-.74,1.86-.08,3.75.05,5.61,0Z"/>
      <polygon class="st0" points="297.06 450.09 294.78 450.51 288.85 447.85 297.06 450.09"/>
      <path class="st0" d="M356.87,438.87h-1.11c-3.37-3.59,1.38-4.52,1.11,0Z"/>
      <path class="st0" d="M285.85,465.02c-.88.78-4.13-2.79-4.49-3.72.95-.84,4.73,3.51,4.49,3.72Z"/>
      <path class="st0" d="M210.34,447.1c-.31,1.13-3.04,1.94-4.07,2.27-1.11.36-2.18.83-3.39.71l7.47-2.98Z"/>
      <path class="st0" d="M295.57,452.33c.17,1.38-1.56.65-2.26.4-1.1-.4-3.89-1.59-4.45-2.64l6.72,2.25Z"/>
      <polygon class="st0" points="370.33 438.12 367.34 438.12 367.34 435.88 368.45 435.89 370.33 438.12"/>
      <path class="st0" d="M211.09,449.34l-6.72,2.98c.14-.96,2.62-1.82,3.46-2.13,1.07-.4,1.96-1.1,3.26-.84Z"/>
      <path class="st0" d="M281.36,468.02c-1.37-.8-3.17-2.17-2.98-3.74,1.37.8,3.17,2.17,2.98,3.74Z"/>
      <path class="st0" d="M299.3,442.61c.16,1.37-1.59.64-2.4.54-1.44-.18-5.22-.61-5.81-2.03l8.22,1.5Z"/>
      <rect class="st0" x="246.98" y="474.75" width=".73" height="5.22"/>
      <path class="st0" d="M274.63,476.23l-3.72-6.72c1.98,1.32,3.14,4.48,3.72,6.72Z"/>
      <path class="st0" d="M294.07,454.57c.13,1.49-1.35.42-2.02.15-1.91-.77-4.96-2.18-6.19-3.89l8.22,3.74Z"/>
      <path class="st0" d="M280.61,471.01c-1.22-.54-2.47-1.64-2.23-2.99,1.22.54,2.47,1.64,2.23,2.99Z"/>
      <rect class="st0" x="253.71" y="474.75" width=".73" height="4.48"/>
      <path class="st0" d="M209.6,444.86c-1.61,2.11-5.75,2.41-8.22,2.97l8.22-2.97Z"/>
      <path class="st0" d="M215.58,459.8c-.54,1.22-1.64,2.47-2.99,2.23.54-1.22,1.64-2.47,2.99-2.23Z"/>
      <polygon class="st0" points="244.73 482.21 243.99 479.62 245.47 474 244.73 482.21"/>
      <path class="st0" d="M220.07,468.76c-.25-1.35,1.01-2.45,2.23-2.99.25,1.35-1.01,2.45-2.23,2.99Z"/>
      <path class="st0" d="M288.84,464.27c-1.35.25-2.45-1.01-2.99-2.23,1.35-.25,2.45,1.01,2.99,2.23Z"/>
      <polygon class="st0" points="232.01 479.22 231.79 477.13 234.26 471.76 232.01 479.22"/>
      <path class="st0" d="M214.83,463.54c-.54,1.22-1.64,2.47-2.99,2.23.54-1.22,1.64-2.47,2.99-2.23Z"/>
      <path class="st0" d="M257.44,482.21c-1.31.11-.66-2.21-.83-3.26-.27-1.65-.94-3.22-.65-4.95l.96,3.13.52,5.08Z"/>
      <path class="st0" d="M242.48,480.72c-1.35.16-.72-1.67-.65-2.52.06-.78.36-4.13,1.4-4.2l-.75,6.72Z"/>
      <path class="st0" d="M270.15,478.48c-1.1-.04-1.36-2.04-1.84-3-.72-1.42-1.87-2.85-1.88-4.47,1.96,1.6,2.89,5.14,3.72,7.47Z"/>
      <path class="st0" d="M264.91,479.97c-.99-.12-1.5-3.01-1.7-3.9-.27-1.19-.76-2.29-.53-3.57l2.23,7.47Z"/>
      <polygon class="st0" points="225.29 475.49 225.13 473.46 228.28 468.77 225.29 475.49"/>
      <path class="st0" d="M292.58,457.55c-1.97-.56-4.77-2.05-5.98-3.72,1.97.56,4.77,2.04,5.98,3.72Z"/>
      <path class="st0" d="M222.31,474c.66-2.34,2.62-5.17,4.47-6.73-.65,2.34-2.62,5.17-4.47,6.73Z"/>
      <path class="st0" d="M279.12,473.25c-.28.36-1.98-1.31-1.48-2.24.28-.36,1.98,1.31,1.48,2.24Z"/>
      <path class="st0" d="M262.67,481.47l-1.4-3.44-.83-4.77c1.23-.11.82,2.01,1.08,3.02.44,1.72,1.15,3.39,1.15,5.2Z"/>
      <path class="st0" d="M259.68,479.97c-1.5-.85-1.19-4.47-1.48-5.97,1.49.82,1.2,4.46,1.48,5.97Z"/>
      <polygon class="st0" points="291.83 459.06 291.46 460.54 285.85 456.07 291.83 459.06"/>
      <path class="st0" d="M214.83,457.56c.36.28-1.31,1.98-2.24,1.48-.36-.28,1.31-1.98,2.24-1.48Z"/>
      <path class="st0" d="M220.82,471.75c-.5-.94,1.2-2.6,1.48-2.24.5.94-1.2,2.6-1.48,2.24Z"/>
      <path class="st0" d="M275.38,472.5l-3.72-5.97c1.76,1.25,3.41,3.84,3.72,5.97Z"/>
      <path class="st0" d="M284.36,460.54c-.94.5-2.61-1.2-2.24-1.48.94-.5,2.61,1.2,2.24,1.48Z"/>
      <path class="st0" d="M290.34,462.03c-1.6-.09-3.67-1.63-4.49-2.97,1.6.09,3.67,1.63,4.49,2.97Z"/>
      <path class="st0" d="M239.49,481.47c-1.39.17-.55-1.5-.41-2.28.23-1.24.76-4.59,1.91-5.19l-1.5,7.46Z"/>
      <path class="st0" d="M208.1,443.36l-7.47,2.23c1.35-1.88,5.32-2.02,7.47-2.23Z"/>
      <polygon class="st0" points="275.37 466.53 276.87 470.26 273.89 466.89 275.37 466.53"/>
      <polygon class="st0" points="237.25 480.72 236.68 478.28 238.75 473.25 237.25 480.72"/>
      <path class="st0" d="M277.62,467.27c-.28.36-1.98-1.31-1.48-2.24.28-.36,1.98,1.31,1.48,2.24Z"/>
      <path class="st0" d="M223.06,468.76c-.5-.94,1.2-2.6,1.48-2.24.5.94-1.2,2.6-1.48,2.24Z"/>
      <polygon class="st0" points="211.84 462.79 210.35 464.28 210.35 462.79 211.84 462.79"/>
      <rect class="st0" x="254.46" y="479.98" width=".73" height="2.23"/>
      <path class="st0" d="M235.01,479.22c-1.41.16-.57-1.51-.41-2.27.2-.95.92-4.12,1.9-4.45l-1.5,6.72Z"/>
      <path class="st0" d="M267.15,478.48c-1.15.18-.8-1.31-1.14-2.2-.47-1.24-1.34-2.31-1.09-3.77,1.15-.18.8,1.31,1.14,2.2.47,1.24,1.34,2.31,1.09,3.77Z"/>
      <polygon class="st0" points="297.81 447.85 295.73 448.06 289.59 445.6 297.81 447.85"/>
      <path class="st0" d="M229.77,477.73c-1.5.12-.41-1.35-.15-2.02.37-.97,1.4-3.6,2.4-3.95l-2.25,5.97Z"/>
      <rect class="st0" x="276.14" y="473.25" width=".73" height="1.49"/>
      <polygon class="st0" points="227.53 476.98 227.38 474.96 231.27 468.02 227.53 476.98"/>
      <rect class="st0" x="358.37" y="438.13" width="1.49" height=".73"/>
      <rect class="st0" x="283.61" y="457.56" width="1.49" height=".73"/>
      <rect class="st0" x="206.61" y="459.06" width="1.49" height=".73"/>
      <rect class="st0" x="210.35" y="459.8" width="1.49" height=".73"/>
      <rect class="st0" x="246.24" y="480.73" width=".73" height="1.49"/>
      <path class="st0" d="M247.72,310.32l.36,5.27c-1.15,1.8-2.31,1.33-4.04.66l1.44-5.4,2.24-.53Z"/>
      <path class="st0" d="M261.18,311.07l-.13,4.73-2.11,1.25c-.58-2.67-1.59-5.56,2.23-5.97Z"/>
      <rect class="st0" x="252.96" y="311.82" width=".73" height="2.23"/>
      <polygon class="st0" points="242.49 311.81 241 311.45 242.48 310.32 242.49 311.81"/>
      <rect class="st0" x="243.99" y="320.05" width="1.49" height=".73"/>
      <path d="M258.57,447.09c2.02-.45,2.56,3.31.73,3.73-1.94.44-3.4-3.13-.73-3.73Z"/>
      <rect x="261.18" y="445.6" width="2.98" height="2.98"/>
      <path d="M254.84,444.85c2.02-.46,2.56,3.31.73,3.73-2.02.46-2.56-3.31-.73-3.73Z"/>
      <path d="M236.15,444.11c2.02-.46,2.56,3.31.73,3.73-2.02.46-2.56-3.31-.73-3.73Z"/>
      <path d="M262.31,441.12c2.54-.68,3.43,2.45,1.48,2.97-2.54.68-3.43-2.45-1.48-2.97Z"/>
      <path d="M245.48,447.1c1.91,1.91-3.81,5.02-3.72,1.12.02-1.01,3.3-1.53,3.72-1.12Z"/>
      <path d="M266.8,428.41c2.02-.46,2.56,3.31.73,3.73-2.02.46-2.56-3.31-.73-3.73Z"/>
      <path d="M240.99,447.84l-.35,2.26c-2.61,1.92-2.97.59-2.63-2.26h2.98Z"/>
      <path d="M264.17,429.91v2.98c-3.95.36-3.98-3.33,0-2.98Z"/>
      <path d="M251.46,440.37v1.48c-2.03.75-3.75,1.21-3.73-1.48h3.73Z"/>
      <path d="M246.98,444.11l-1.15,1.46c-2.15.53-3.63-1.64-1.47-2.95l2.62,1.49Z"/>
      <path d="M261.18,439.62v1.11c-.79,1.17-1.61,1.3-2.98,1.13v-2.23s2.98,0,2.98,0Z"/>
      <path d="M258.19,434.39c.29,1.79-.35,3.17-2.24,2.98l.75-2.98h1.48Z"/>
      <polygon points="257.44 441.87 256.69 444.1 255.2 444.09 255.96 441.86 257.44 441.87"/>
      <polygon points="242.49 441.12 242.49 442.6 241.38 442.6 240.25 441.48 242.49 441.12"/>
      <rect x="264.18" y="451.58" width=".73" height="1.49"/>
      <rect x="266.42" y="454.57" width="1.49" height=".73"/>
      <rect x="247.73" y="436.64" width="1.49" height=".73"/>
      <path d="M230.53,432.89c-1.27-1.75,2.26-4.48,2.98-1.86s-2.34,2.75-2.98,1.86Z"/>
      <path d="M229.04,429.15v-2.98c3.95-.36,3.98,3.33,0,2.98Z"/>
      <path d="M246.23,414.2v-2.98c3.95-.36,3.98,3.33,0,2.98Z"/>
      <path d="M238.75,423.18c1.23,1.23-1.91,4.74-2.98,1.86-.96-2.58,2.66-2.18,2.98-1.86Z"/>
      <path d="M234.26,425.41h-2.98c-.36-3.95,3.33-3.98,2.98,0Z"/>
      <path d="M246.22,414.96c1.23,1.23-1.91,4.74-2.98,1.86-.96-2.58,2.66-2.18,2.98-1.86Z"/>
      <path d="M237.26,430.66l.75,2.98c-2.22.34-3.33-.6-2.99-2.98h2.24Z"/>
      <path d="M247.72,418.7c.72.33-2.38,1.87-2.98,2.23-.21-1.93,1.28-2.5,2.98-2.23Z"/>
      <path d="M242.5,427.66c-.5-.94,1.2-2.6,1.48-2.24.5.94-1.2,2.6-1.48,2.24Z"/>
    </g>
  </g>
</svg>