<?xml version="1.0" encoding="UTF-8"?>
<svg id="katman_1" xmlns="http://www.w3.org/2000/svg" version="1.1" viewBox="0 0 566.93 566.93">
  <!-- Generator: Adobe Illustrator 29.6.0, SVG Export Plug-In . SVG Version: 2.1.1 Build 142)  -->
  <defs>
    <style>
      .st0 {
        fill: #fff;
      }

      .st0, .st1 {
        opacity: .25;
      }

      .st1 {
        fill: #010101;
      }

      .st2 {
        opacity: .54;
      }
    </style>
  </defs>
  <g class="st2">
    <g>
      <path class="st1" d="M118.8,245.94c3.05-3.95,13.78.84,15.76-1.88,1.22-1.67,5.8-22.04,7.52-26.86,2.93-8.2,7.73-15.97,10.59-23.76.96-2.61.22-6.28,1.98-8.81,1.37-1.98,3.62-1.88,5.38-3.45,3.78-3.39,8.82-13.04,12.76-17.67,10.49-12.31,21.59-18.52,33.68-28.15,2.09-1.65,3.12-4.99,5.81-5.99,1.5-.55,3.07.38,4.61-.17,9.24-3.36,17.72-8.03,27.5-10.86,7.64-2.22,16.85-2.8,23.65-4.83,1.38-.42,1.93-1.01,1.88-2.52,2.49,1.44.35,6.67-.03,8.81l-1.01-2.89c-1.09-1.12-26.54,6.27-30.15,7.54-3.99,1.41-17.51,6.82-20.23,9-1.34,1.08.14,3.15-1.18,4.15-1.69,1.27-8.55,2.08-11.87,3.63-9.06,4.24-38.01,33.03-42.42,42.08-.98,2.02-.16,5.48-2,7.5-.93,1.02-2.55.62-3.89,2.22-1.34,1.6-5.05,9.97-6.17,12.5-5.33,12.1-9.25,25.77-10.62,38.96h15.5v15.21c0,.5,1.63,1.62,2.45,1.47l53.46-.97c1.17-24.41,14.72-47.57,35.99-59.68,10.75-6.12,29.54-8.75,42.04-8.09,32.33,1.69,58.3,19.71,66.87,51.85,1.47,5.49,2.11,10.9,3.19,16.45,4.42-.05,8.86.39,13.33.47,6.53.13,15.29-1.14,21.45-.93,5.79.18,15.19,4.78,21.18.41v-15.22l14.75-.42c1.76-1.46.97-5.63.71-7.68-1.89-14.71-10.28-30.53-15.36-44.36-8.22-.95-4.75-5.79-7.43-11.47-5.17-10.95-20.45-23.23-29.6-31.35-1.99-1.76-2.66-4.08-5.01-5.8-4.92-3.6-12.41-4.15-15.4-5.97-.95-.58-1.3-2.54-2.64-3.47-14.16-9.73-29.03-11.75-43.95-17.99-.92-.38-2.12-1.1-2.24-2.18,10.91.76,22.14,4.62,32.42,8.36,4.77,1.74,10.01,5.13,14.74,6.89,2.06.76,4.63.21,6.69,1.17,2.27,1.07,2.06,3.54,3.63,5.22,5.76,6.23,21.94,14.99,29,22.1,5.77,5.82,12.08,18.3,17.67,24.6,1.21,1.37,3.39,1.07,4.08,2.02,1.12,1.58.62,5.17,1.37,7.26,2.83,7.88,7.05,15.03,9.59,22.83,3.13,9.61,6.34,20.13,6.64,30.23,1.01,1.05,12.37-.85,14.5-.8,1.21.03,1.51.37,2.22,1.29v33.64h-15.73c-1.71,8.16-2.1,16.54-4.42,24.59-3.25,11.31-8.47,23.72-12.48,34.72-.51,1.39-3.8,2.91-5.25,4.59-5.04,5.89-9.04,13.67-14.21,19.22-4.17,4.47-34.13,31.72-37.7,33.19-1.82.75-3.32-.28-5.28.45-6.43,2.35-13.09,7.5-19.77,9.83-10.49,3.64-22.67,3.84-32.68,8.63v14.75l-1.47,1.47h-32.8l-1.47-1.47v-16.19c-9.14-1.88-19.6-2.84-28.48-5.37-8.85-2.52-17.88-7.85-26.5-10.89-1.58-.55-3.18.39-4.61-.17-2.52-.97-2.99-3.73-4.69-5.16-13.63-11.53-28.22-21.38-39.71-35.86-2.39-3.01-5.95-11.1-7.89-12.71-1.5-1.25-4.25-1.18-4.7-1.68-.63-.71-1.19-8.31-1.84-10.43-2.95-9.69-8.61-19.16-11.59-29.63-1.75-6.12-3.26-12.35-3.86-18.72l-16.26-1.9v-34.85l-.04-.03ZM278.56,210.02c-.2-3.48.2-9.49-2.93-11.77.34,2.86.56,6.28,1.26,9.05.25.98.28,2.95,1.67,2.72h0ZM281.5,210.02c.08-2.09.09-4.16-.12-6.25-.11-1.1-.45-5.4-1.83-5.51.03,2.4-.2,4.83.11,7.24.13,1.06.37,4.6,1.84,4.53ZM284.56,198.24c-3.44-.77-1.54,3.4-2.01,5.45l2.01,14.18v-19.63h0ZM287.39,209.03c-.05-2.44.12-4.92,0-7.37-.05-1.19.75-3.65-.97-3.41.05,2.44-.12,4.92,0,7.37.05,1.19-.75,3.65.97,3.41ZM291.32,198.34c-1.22-1.59-1.77.01-1.96,1.44-.37,2.9.26,6.36,0,9.34l1.94-10.78h.01ZM293.01,210l.98-11.77-2,3.4,1.01,8.38h0ZM296.26,210.02c-.18-3.52,3.22-8.81.5-11.78-.96,3.41-1.64,7.02-2.23,10.53-.32,1.89.03,1.18,1.73,1.23h0ZM275.62,210.99c.04-2.94-.47-6.21-1.27-9.02-.29-1.01-.22-2.97-1.65-2.74-.04,2.94.47,6.21,1.27,9.02.29,1.01.22,2.97,1.65,2.74ZM299.17,211l1.97-11.78c-2.13,1.59-5.33,10.43-1.97,11.78ZM270.7,200.19l-1.8,1.31,3.77,9.48-1.97-10.79ZM302.11,211l1.97-10.79c-1.81.3-1.64,2.02-2.09,3.3-.29.83-3.11,10.99.12,7.5ZM267.75,201.18l-1.92,1.42,3.89,9.38-1.97-10.79ZM308.01,201.19c-2.49-.45-1.77.38-2.4,1.96-1.05,2.63-1.59,6.07-2.49,8.82,2.78.5,1.62-.66,2.21-2.15.51-1.27,2.98-8.29,2.69-8.63h0ZM267.66,212.94c-2.02-3.23-1.63-8.55-4.9-10.78-.14,2.93,1.22,6.26,2.49,8.82.7,1.39-.24,2.48,2.4,1.97h0ZM308.01,212.64l2.94-10.79c-1.54.25-1.84,1.84-2.43,2.97-.76,1.47-4.56,8.93-.53,7.83h.01ZM260.88,202.89c-4.16-1.09.91,6.95,1.72,8.63.64,1.34-.63,2.7,2.21,2.15l-3.94-10.78h.01ZM309.01,213.94c2.76-2.01,4.65-6.53,4.88-9.81-2.76,2.01-4.65,6.53-4.88,9.81ZM257.93,204.84l-1.93.47c1.67,3.16,2.64,7.25,5.87,9.34l-3.93-9.81h-.01ZM311.92,217.87l4.91-12.75c-2.25,2.25-6,8.57-6.78,11.38-.5,1.84.47,1.46,1.86,1.37h0ZM259.21,216.88c-.17-3.9-2.89-8.3-5.87-10.79.07,2.07,1.48,4.07,2.43,5.9.72,1.4,1.97,4.36,3.44,4.88h0ZM320.77,207.08c-1.65-1.64-7.46,9.09-6.87,9.8,1.56,1.88,2.1-1.47,2.43-1.94,1.65-2.49,3.19-5.13,4.44-7.85h0ZM257.94,219.82c-1.19-4.23-4.48-9.09-7.84-11.78,1.19,4.23,4.48,9.09,7.84,11.78ZM318.82,217.87l4.91-8.82c-1.83-1.72-7.8,8.35-6.87,9.81l1.96-.98.05,1.89c1.63,1.29,6.54-6.74,6.81-8.76l-6.87,6.87h0ZM249.09,210.02c-4.71-.89,1.65,6.36,2.74,7.56.96,1.06,1.06,2.74,3.16,2.23l-5.91-9.8h0ZM252.05,221.79c.95-1.09-5.09-8.38-6.85-8.84-.32,1.8,6.36,9.4,6.85,8.84ZM320.77,221.78c1.4,1.3,8.52-8.08,7.84-8.82-1.68.3-8.29,8.42-7.84,8.82ZM244.19,214.93l-1.93,1.46,7.84,7.38-5.9-8.82h-.01ZM323.73,223.75c2.39-1.97,6.36-4.58,6.85-7.85-2.39,1.97-6.36,4.58-6.85,7.85ZM247.15,224.74c1.1-1.08-6.66-8.92-7.85-7.84.09,1.65,6.53,9.14,7.85,7.84ZM332.55,218.85c-2.76.39-6.5,4.15-6.87,6.85l6.87-6.85ZM245.18,227.68c-.64-3.01-4.75-7.14-7.84-7.84l7.84,7.84ZM335.5,220.82c-3.27.5-5.88,4.46-7.85,6.85,3.27-.5,5.88-4.46,7.85-6.85ZM244.21,229.63c.54-.49-8.89-8.67-9.82-7.83.47,1.75,8.88,8.67,9.82,7.83ZM338.45,222.78c-3.14,1.18-8.3,4.32-8.82,7.84l8.82-7.84ZM242.24,231.59c-2.55-2.63-6.22-5.88-9.82-6.85,2.28,2.81,6.2,6.22,9.82,6.85ZM340.4,225.72c-3.48,1.14-7.69,3.91-9.82,6.85,3.48-1.14,7.69-3.91,9.82-6.85ZM240.27,232.6l-9.81-4.91,9.34,6.85.47-1.94ZM342.37,228.68c-3.34.87-7.13,3.34-9.94,5.3-1.18.83-2.4.04-1.84,2.55l11.77-7.84h.01ZM238.31,236.5c-1.83-3.14-6.38-4.99-9.82-5.87l9.82,5.87ZM344.33,231.62c-2.7.05-5.58,2.06-7.87,3.44-1.23.75-2.49-.2-1.93,2.44l9.8-5.88h0ZM239.3,240.43c-2.78-3.31-7.66-5.74-11.78-6.85,2.35,3.6,7.76,5.54,11.78,6.85ZM281.96,265.66c2.56-2.53,6.53-18.24,6.74-22.22.12-2.18-2.94-2.72-2.52-4.46l3.91-2.95c-5.66-6.6-15.84.37-15.73,7.88.04,2.76,2.35,4.53,2,7.33-1.22,1.23-11.37-7.24-18.09.07-8.13,8.82,2.21,20.94,13.2,17.61l-3.93,4.9c4.92-.6,5.48-4.24,7.37-7.84l1.96,2.93c.88-2.19,4.29-2.4,5.11-3.22h0ZM345.31,234.56l-9.81,4.88c3.3-.22,7.79-2.14,9.81-4.88ZM236.34,240.45l-10.79-3.93c1.14,1.94,4.82,3.76,6.84,4.44.93.32,4.11,1.42,3.95-.51ZM308.99,254.17c-2.14.08-5.46,1.33-7.87,1.46l1,3.44c-2.68.95-1.73-1.69-2.01-1.88-2.06-1.34-1.69,1.34-2.63,1.85-1.13.63-3.13.43-4.29,1.51l.11,2.44c-5.42-1.4-3.51,2.65-5.59,4.04-1.42.95-3.69.08-4.98.56-.24.09-3.85,1.68-4.08,1.79-2.56,1.26-4.65,4.21-7.92,4.41l1.97,1.6c.46,3.06,0,4.2-3.3,3.28-.88-.25-.26-3.31-3.64-1.47-4.94,2.68.74,16.75,11.84,13.77,8.51-2.27,3.83-10.68,10.77-11.31-.81,4.83,2.52,9.97,7.42,10.74,1.63.25,6.92-.26,7.27.11.38.41-.64,4.79,2.7,5.71,6.28,1.72,8.61-8.26,2.25-5.76l1.96-1.46-3.93-1.48c5.09-5.71,2.46-16.53-5.9-16.69l1-3.93c16.35,5.8,20.17-20.22,3.41-19.7-4.81.14-5.87,2.38-9.31,4.99-1.83-3.48,1.08-6.59.55-9.87-1.22-7.58-7.59-4.49-2.59,2.4-5.46,3.36-3.01,4.23-3.94,8.88-.56,2.82-2.28,5.37-1.89,8.42,2.47.64,2.21-1.93,3.14-2.64.38-.29,3.2,1.34,2.76-3.26l3.9.56c2.72-1.3-.08-5.61,6.67-7.16,1.55-.35,3.41.87,5.11-.28,0,1.63.04,3.28,0,4.91,8.43-.34.55,7.46-.91,2.35-.25-.87.91-1.96.91-2.35h.03ZM347.6,237.5c-1.96-.01-3.78,1.06-5.55,1.8-1.4.58-4.74,1.65-5.24,3.1,3.41-.47,8.39-2.28,10.79-4.88h0ZM235.37,243.39l-10.78-3.94c-.54,2.81.76,1.58,2.14,2.22,1.46.67,3.41,1.58,4.9,2.02.92.28,3.91,1.67,3.74-.3ZM348.27,240.44c-3.34,1.38-8.55,2.05-10.79,4.88,3.47-.6,8.72-1.93,10.79-4.88ZM234.38,246.34l-10.78-2.94,7.8,3.48,2.98-.54ZM349.24,244.37c-2.67-.16-5.24.72-7.66,1.71-1.47.6-2.67-.59-2.15,2.21l9.81-3.91h0ZM233.41,250.24c-2.1-2.95-7.52-2.74-10.79-3.9,2.1,2.76,7.55,3.18,10.79,3.9ZM350.22,247.08c-2.49.24-5.3.85-7.66,1.71-1.56.56-2.64-.53-2.15,2.21l9.8-3.91h.01ZM232.43,253.19c-2.14-3.4-7.58-2.07-10.79-3.91-.47,2.81.59,1.63,2.26,2.1,2.76.76,5.74,1.17,8.52,1.83h.01ZM351.21,250.26l-10.79,2.93c3.3-.05,8.75.2,10.79-2.93ZM427.54,252.28h-3.9v3.9h3.9v-3.9ZM444.46,256.18c.46-5.23-4.39-5.19-3.91,0h3.91ZM231.44,254.17l-10.79-.97,9.56,2.72,1.23-1.75h0ZM352.18,254.23c-1.76-.11-3.51-.07-5.27.12-1.12.12-5.4.43-5.51,1.83l10.79-1.94h-.01ZM231.27,259.07c-1.96-3.48-7.48-1.19-10.79-2.93-.41,2.76.49,1.81,2.44,1.96,2.89.2,5.5.01,8.35.98h0ZM352.19,257.13l-10.79,1.94c3.3-.51,8.88,1.63,10.79-1.94ZM230.46,260.08c-2.44.07-4.92-.11-7.37,0-1.19.05-3.65-.75-3.41.97,3.36-.38,6.29.17,9.56.77,1.89.35,1.19-.08,1.23-1.75h-.01ZM352.19,260.73h-17.17c-.17,0-1.55,1.33-1.47,1.96l1.48.04,17.16-2h0ZM230.46,263.01c-.62-.11-13.22-.64-9.81,1.96.62.11,13.22.64,9.81-1.96ZM155.23,266.58v14.95h-16.88c-2.16,2.04,5.34,28.52,6.93,32.91,1.05,2.88,6.49,15.82,7.93,17.45,1.06,1.19,3.75.97,5.11,3.06,1.49,2.3,1.09,7,3.07,10.71,4.92,9.26,23.47,27.26,32.17,34,2.21,1.71,9.7,7.35,11.71,8.09,2.63.97,6.4.33,7.73,1.21.92.6,1,2.93,1.9,4,4.9,5.86,32.82,12.33,41.05,14.46,1.58.41,2.79,2.26,4.44,2.51,2.08.33,4.9-1.38,7.26-.81v-14.72l16.9-.98.59-55.94c-4.33-3.05-9.74-1.28-14.56-2.13-1.07-.19-11.13-3.56-12.5-4.09-18.17-7.02-31.71-23.18-39.35-40.36-4-8.97-4.82-16.28-6.28-25.85-6.68-2.41-14.04.01-20.46.15-10.35.22-23.59-1.23-33.41-.09-1.43.17-2.52.12-3.38,1.5h.03ZM352.18,264c-2.44.05-4.92-.12-7.37,0-1.19.05-3.65-.75-3.41.97,2.44-.05,4.92.12,7.37,0,1.19-.05,3.65.75,3.41-.97ZM415.6,264.63h-55.03l-1.31,1.63c-1.64,8.98-3,24.74-8.14,32.14-1.1,1.59-3.17,2.02-4.28,3.58-11.99,16.77-20.6,25.2-41.05,31.66-4.22,1.34-14.25,1.68-15.97,5.65l-1.49,54.02h15.73v14.23c0,1.01,2.3,1.52,3.39,1.52,2.8,0,13.7-2.76,17.06-3.67,1.93-.53,3.33-2.18,4.99-2.68,7.37-2.22,19.93-4.42,26.04-9.53,1.87-1.56,1.85-4.5,3.52-5.32,1.75-.87,4.47-.24,6.86-1,3.81-1.22,17.21-12.37,20.7-15.65,3.75-3.54,24.43-27.51,25.34-30.66.63-2.2-.46-5.6.64-7.22.55-.8,3.09-1.1,4.5-2.38,1.05-.95,4.3-6.34,4.92-7.85,2.92-7.18,9.6-32.11,9.81-39.42.03-.76.22-1.54-.13-2.26l-15.62-2.06c-1.21-3.05,2.5-13.83-.49-14.73h0ZM239.33,265.93h-8.35l-11.33,1.95h10.33l9.37-1.95h-.01ZM352.18,267.92l-10.79-.98c.16,1.58,4.21,1.84,5.41,1.94,1.13.11,5.38.81,5.38-.96ZM231.44,268.91l-10.79,1.94c3.3-.51,8.88,1.63,10.79-1.94ZM426.79,273.08c.35-5.94-5.87-4.71-1.46,0h1.46ZM444.46,271.78l-2.47-3.25h-1.46v3.25h3.93ZM352.18,270.86l-10.79-.98c.03,1.68,3.23,1.84,4.41,1.96s6.13.77,6.38-.97h0ZM430.79,271.78h-1.95v.65h1.95v-.65ZM230.46,272.83c-2.05-.13-4.06-.08-6.11.28-1.04.17-3.9.25-3.7,1.67l9.81-1.94h0ZM351.21,275.76c-1.9-3.02-7.64-2.21-10.79-2.93,1.97,2.94,7.6,1.55,10.79,2.93ZM231.44,276.98l-.47-1.94-9.34,2.92,9.82-.97h-.01ZM351.2,277.73l-10.79-1.97c.77,1.86,5.74,2.43,7.63,2.67,1.08.13,3.37,1.1,3.15-.71h.01ZM231.44,278.72c-2.81.28-8.02.46-9.81,2.93l9.81-2.93ZM349.24,280.69l-9.81-1.97c.63,1.72,5.04,2.44,6.63,2.69,1.05.16,3.41,1.05,3.18-.72ZM233.41,280.69l-10.79,3.9c3.24-.74,8.68-1.13,10.79-3.9ZM349.24,284.77l-10.78-2.94,8.06,3.22,2.73-.28h-.01ZM234.38,283.47l-9.81,3.91c1.59.16,2.99-.46,4.45-.93,1.37-.43,4.94-1.5,5.34-2.98h.01ZM348.25,287.37l-10.78-2.94,7.79,3.49,3.01-.55h-.01ZM235.17,286.57c-1.71-.34-2.88.58-4.28,1.1-1.12.42-4.36,1.55-4.54,2.8l8.82-3.91h0ZM346.3,290.49l-8.82-2.95c.74,1.39,4.41,2.94,5.84,3.47.92.34,3.19,1.29,2.97-.53h.01ZM236.35,290.47l-.47-1.94-9.34,5.87,9.81-3.93ZM344.33,293.22l-10.79-4.91c1.62,2.25,5.62,4.1,8.13,5.11.88.35,2.82,1.75,2.65-.2h.01ZM235.37,295.17l1.5-3.91c-2.14,1.88-5.15,2.89-7.35,4.43-2.63,1.83,2.36,1.51,2.93,1.44l1.22.83c.39-.08.53-.75.75-.83,1.35-.5,6.12-1.97,4.4-2.95-1.1.43-2.32.59-3.43,1h-.01ZM342.37,297.35c-1.59-2.21-5.27-4.15-7.85-4.88,1.59,2.21,5.27,4.15,7.85,4.88ZM341.1,299.33l-7.84-3.94,7.37,5.87.47-1.94h0ZM240.28,297.36c-1.23-.66-3.43,1.58-2.94,1.94,1.23.66,3.43-1.58,2.94-1.94ZM332.65,297.77h-1.95v.65h1.95v-.65ZM231.27,299.72h-1.95v.65h1.95v-.65ZM331.58,301.27c.47-.37-1.72-2.6-2.94-1.94-.47.37,1.72,2.6,2.94,1.94ZM339.43,303.23c-1.08-1.76-3.78-3.79-5.9-3.9,1.08,1.76,3.78,3.79,5.9,3.9ZM236.47,300.37h-1.95v.65h1.95v-.65ZM241.27,300.3c-1.77-.33-3.22,1.33-3.93,2.93,1.77.33,3.22-1.33,3.93-2.93ZM333.53,307.16c.32-.28-4.64-5.99-5.9-4.88.47,1.23,4.73,5.91,5.9,4.88ZM247.15,303.26c-3.62.8-6.51,5.15-8.84,7.83,3.62-.8,6.51-5.15,8.84-7.83ZM337.46,306.17c-.71-1.6-2.15-3.24-3.93-2.93.71,1.6,2.15,3.24,3.93,2.93ZM236.47,304.27h-1.96v1.96l1.96-1.96ZM240.28,305.21c-1.77-.33-3.22,1.33-3.93,2.93,1.77.33,3.22-1.33,3.93-2.93ZM327.64,311.1c.26-2.06-2.11-3.86-3.91-4.91-.26,2.06,2.11,3.86,3.91,4.91ZM322.73,310.11c.66-1.23-1.58-3.41-1.94-2.94-.66,1.23,1.58,3.41,1.94,2.94ZM247.16,312.07c1.6-.71,3.24-2.15,2.93-3.93-1.6.71-3.24,2.15-2.93,3.93ZM251.09,312.07c.37.47,2.6-1.72,1.94-2.94-.37-.47-2.6,1.72-1.94,2.94ZM319.79,316.98c-.42-2.8-2.57-6.21-4.88-7.84l4.88,7.84ZM319.77,309.14l-1.94.47,3.91,4.43-1.97-4.9h0ZM250.1,318.95c2.43-2.05,5.02-5.76,5.87-8.84-2.43,2.05-5.02,5.76-5.87,8.84ZM256.96,322.86l4.91-11.77-5.11,9.11.2,2.65ZM326.65,315.02c.33-1.77-1.33-3.22-2.93-3.93-.33,1.77,1.33,3.22,2.93,3.93ZM254.02,320.9l3.93-8.82-4.14,6.16.2,2.65h.01ZM289.76,329.62v-17.55h-1.3v17.55h1.3ZM248.15,315.99c.37.47,2.6-1.72,1.94-2.94-.37-.47-2.6,1.72-1.94,2.94ZM318.8,321.88c-.77-2.94-2.28-7.1-4.88-8.82l4.88,8.82ZM314.88,321.88c-.03-2.73-1.42-6.43-3.91-7.84l3.91,7.84ZM312.92,324.83c-1.09-3.06-2.32-7.71-4.88-9.81.01,2.11,1.52,4,2.47,5.87.64,1.26.97,3.89,2.42,3.94ZM324.7,317.96c.66-1.23-1.58-3.41-1.94-2.94-.66,1.23,1.58,3.41,1.94,2.94ZM259.9,323.85l2.95-7.84c-1.31.46-2.65,3.91-3.15,5.19-.34.88-1.77,2.81.2,2.65ZM262.84,325.72l2.94-9.8-3.24,7.05.29,2.74h.01ZM266.78,325.72l1.97-8.82c-1.29.43-2.23,4.6-2.49,5.84-.22,1.01-1.31,3.19.54,2.98h-.01ZM306.04,326.79l-2.93-9.81c-.3,1.68.34,3.13.7,4.69.26,1.17.93,4.96,2.23,5.12ZM308.98,324.83c.33-1.92-.81-3.32-1.43-4.95-.45-1.18.03-3.13-1.5-2.89-.33,1.92.81,3.32,1.43,4.95.45,1.18-.03,3.13,1.5,2.89ZM269.72,327.77l1.97-9.81-2.72,6.6.75,3.2ZM303.41,328.76c0-2.38-.93-4.57-1.51-6.83-.34-1.31.2-4.11-1.42-3.97l1.09,6.26,1.84,4.52h0ZM321.6,319.87v-1.95h-.65v1.95h.65ZM272.86,328.76l1.97-9.8c-1.51.79-2.21,5.17-2.51,6.81-.18,1.01-1.29,3.22.54,2.99h0ZM276.59,327.77l.98-8.82c-1.37.09-1.76,4.49-1.84,5.51-.09,1.1-.92,3.52.85,3.31ZM279.36,329.73l.98-10.78-1.94,7.38.96,3.41h0ZM296.23,329.73l-.68-6.67-1.26-4.11c-.38,2.27.5,4.33.85,6.5.22,1.38-.63,4.43,1.09,4.28h0ZM299.17,326.79c-.37-1.98,0-6.78-1.94-7.84.38,1.98-.03,6.72,1.94,7.84ZM283.26,327.02v-7.15h-.65v7.15h.65ZM286.41,330.71c-.05-2.44.12-4.92,0-7.37-.05-1.19.75-3.65-.97-3.41.05,2.44-.12,4.92,0,7.37.05,1.19-.75,3.65.97,3.41ZM292.36,325.72v-5.85h-.65v5.85h.65ZM293.01,329.62v-3.25h-.65v3.25h.65ZM282.61,329.62v-1.95h-.65v1.95h.65Z"/>
      <path class="st1" d="M235.37,295.17c-.42.41-.8,1.86-.98,1.96-.3.16-1.34-.08-1.97,0,.21-1.75,1.8-1.55,2.94-1.96h.01Z"/>
      <path class="st1" d="M273.52,108h-3.91v-10.84s23.72,1.16,35.47,0c.47.47-.38,11.08-.05,13.3s2.23,3.98,2.07,5.76c-.05.62-1.65.58-2.02,1.22-2.15,3.66-.45,10.74-.98,15.05-4.24,1.85-5.82-2.82-6.58-2.99-1.06-.22-3.52,1.22-5.12-.05l-.09-3.83c-2.74-.55-1.92,1.01-1.97,2.54h-7.84c-.29-5.46,8.39-8.22,12.17-5.58,1.14.8-.09,4.11,2.05,3.05,2.52-1.25,3.62-8.3.96-8.82-1.16-.22-7.52,3.58-9.9,3.91-3.47.49-2.53-2.64-3.76-2.78-5.07-.6-6.05,7.9-5.46,11.62-3.87.71-1.21-6.58-1.97-8.82l-.97,8.73h-3.08c-.58-1.37.97-2.92.97-3.42v-18.03h.01ZM276.76,105.98v-1.96l-1.96,1.47,1.96.49ZM283.47,104.03l-2.94.7-1.89,7.09c2.27.89,3.79,1.51,5.3-.87l-.47-6.92h0ZM301.14,105.01c-5.03.54-3.69,4.33-2.93,7.84l2.77-1.64.17-6.21h-.01ZM291.06,109.3v-3.25h-.65v3.25h.65ZM280.66,117.1h-1.95v.65h1.95v-.65Z"/>
      <path class="st1" d="M289.11,132.66v56.42c0,.21,1.47,1.12.98,1.46h-4.91c-.2-8.64.26-17.37.04-26.04-.2-7.5.04-19.39-1.08-26.41-.91-5.75-5.83-4.29-5.84-4.96l10.81-.49h0Z"/>
      <path class="st0" d="M284.56,198.24v19.63l-2.01-14.18c.47-2.05-1.43-6.22,2.01-5.45h0Z"/>
      <path class="st0" d="M311.92,217.87c-1.39.09-2.36.47-1.86-1.37.77-2.81,4.53-9.15,6.78-11.38l-4.91,12.75h0Z"/>
      <polygon class="st0" points="239.33 265.93 229.96 267.88 219.63 267.88 230.96 265.93 239.33 265.93"/>
      <path class="st0" d="M352.19,260.73l-17.16,2-1.48-.04c-.07-.63,1.3-1.96,1.47-1.96h17.17Z"/>
      <path class="st0" d="M257.94,219.82c-3.36-2.69-6.64-7.55-7.84-11.78,3.36,2.69,6.64,7.55,7.84,11.78Z"/>
      <path class="st0" d="M239.3,240.43c-4.02-1.31-9.43-3.26-11.78-6.85,4.12,1.12,8.99,3.55,11.78,6.85Z"/>
      <path class="st0" d="M296.26,210.02c-1.71-.05-2.05.66-1.73-1.23.59-3.51,1.27-7.13,2.23-10.53,2.73,2.95-.67,8.25-.5,11.78h0Z"/>
      <path class="st0" d="M299.17,211c-3.37-1.35-.17-10.19,1.97-11.78l-1.97,11.78Z"/>
      <path class="st0" d="M247.15,224.74c-1.33,1.3-7.76-6.18-7.85-7.84,1.18-1.09,8.94,6.75,7.85,7.84Z"/>
      <path class="st0" d="M308.01,212.64c-4.04,1.09-.24-6.37.53-7.83.59-1.13.89-2.72,2.43-2.97l-2.94,10.79h-.01Z"/>
      <path class="st0" d="M230.46,263.01c3.41,2.6-9.19,2.06-9.81,1.96-3.41-2.6,9.19-2.06,9.81-1.96Z"/>
      <path class="st0" d="M302.11,211c-3.24,3.51-.41-6.66-.12-7.5.45-1.27.28-2.99,2.09-3.3l-1.97,10.79Z"/>
      <path class="st0" d="M308.01,201.19c.29.35-2.18,7.35-2.69,8.63-.59,1.5.56,2.65-2.21,2.15.91-2.76,1.44-6.21,2.49-8.82.63-1.58-.09-2.4,2.4-1.96h0Z"/>
      <path class="st0" d="M249.09,210.02l5.91,9.8c-2.1.51-2.19-1.17-3.16-2.23-1.1-1.22-7.47-8.47-2.74-7.56h0Z"/>
      <path class="st0" d="M260.88,202.89l3.94,10.78c-2.84.55-1.56-.81-2.21-2.15-.81-1.69-5.9-9.73-1.72-8.63h-.01Z"/>
      <path class="st0" d="M320.77,207.08c-1.26,2.72-2.8,5.36-4.44,7.85-.32.49-.87,3.83-2.43,1.94-.59-.71,5.21-11.44,6.87-9.8h0Z"/>
      <path class="st0" d="M342.37,228.68l-11.77,7.84c-.56-2.51.66-1.72,1.84-2.55,2.81-1.96,6.6-4.44,9.94-5.3h-.01Z"/>
      <path class="st0" d="M267.66,212.94c-2.64.51-1.71-.58-2.4-1.97-1.27-2.56-2.64-5.9-2.49-8.82,3.27,2.23,2.88,7.56,4.9,10.78h0Z"/>
      <polygon class="st0" points="267.75 201.18 269.72 211.97 265.83 202.6 267.75 201.18"/>
      <polygon class="st0" points="293.28 210 292.28 201.64 294.26 198.24 293.28 210"/>
      <path class="st0" d="M278.56,210.02c-1.39.24-1.42-1.73-1.67-2.72-.68-2.77-.92-6.18-1.26-9.05,3.13,2.27,2.72,8.3,2.93,11.77h0Z"/>
      <path class="st0" d="M259.21,216.88c-1.47-.54-2.72-3.49-3.44-4.88-.95-1.84-2.38-3.82-2.43-5.9,2.99,2.48,5.7,6.88,5.87,10.79h0Z"/>
      <path class="st0" d="M318.82,217.87l-1.96.98c-.95-1.46,5.04-11.53,6.87-9.81l-4.91,8.82,6.87-6.87c-.28,2.02-5.19,10.04-6.81,8.76l-.05-1.89h0Z"/>
      <path class="st0" d="M275.62,210.99c-1.42.22-1.35-1.73-1.65-2.74-.8-2.82-1.31-6.08-1.27-9.02,1.42-.22,1.35,1.73,1.65,2.74.8,2.82,1.31,6.08,1.27,9.02Z"/>
      <path class="st0" d="M234.38,297.35c-.22.08-.35.76-.75.83l-1.22-.83c.63-.08,1.67.16,1.97,0Z"/>
      <path class="st0" d="M232.43,297.12c-.55.07-5.54.38-2.93-1.44,2.21-1.54,5.21-2.56,7.35-4.43l-1.5,3.91c-1.14.42-2.74.21-2.94,1.96h.01Z"/>
      <path class="st0" d="M235.37,295.17c1.1-.41,2.32-.55,3.43-1,1.72.98-3.05,2.46-4.4,2.95.18-.09.56-1.56.98-1.96h-.01Z"/>
      <rect class="st0" x="288.46" y="312.07" width="1.3" height="17.55"/>
      <path class="st0" d="M309.01,213.94c.24-3.28,2.14-7.8,4.88-9.81-.24,3.28-2.14,7.8-4.88,9.81Z"/>
      <path class="st0" d="M257.93,204.84l3.93,9.81c-3.22-2.09-4.2-6.17-5.87-9.34l1.93-.47h.01Z"/>
      <path class="st0" d="M320.77,221.78c-.43-.41,6.16-8.52,7.84-8.82.68.75-6.43,10.12-7.84,8.82Z"/>
      <polygon class="st0" points="244.19 214.93 250.09 223.75 242.25 216.38 244.19 214.93"/>
      <polygon class="st0" points="270.7 200.19 272.66 210.99 268.89 201.51 270.7 200.19"/>
      <path class="st0" d="M244.21,229.63c-.95.84-9.35-6.08-9.82-7.83.92-.84,10.36,7.34,9.82,7.83Z"/>
      <path class="st0" d="M281.5,210.02c-1.46.07-1.69-3.47-1.84-4.53-.3-2.4-.09-4.83-.11-7.24,1.38.12,1.72,4.41,1.83,5.51.21,2.09.18,4.16.12,6.25Z"/>
      <path class="st0" d="M236.34,240.45c.16,1.93-3.02.83-3.95.51-2.02-.68-5.7-2.49-6.84-4.44l10.79,3.93Z"/>
      <path class="st0" d="M238.31,236.5l-9.82-5.87c3.44.88,7.98,2.73,9.82,5.87Z"/>
      <path class="st0" d="M291.32,198.34l-1.94,10.78c.25-2.98-.38-6.43,0-9.34.18-1.43.74-3.03,1.96-1.44h-.01Z"/>
      <polygon class="st0" points="240.27 232.6 239.79 234.54 230.46 227.69 240.27 232.6"/>
      <path class="st0" d="M340.4,225.72c-2.13,2.94-6.33,5.7-9.82,6.85,2.13-2.94,6.33-5.7,9.82-6.85Z"/>
      <path class="st0" d="M252.05,221.79c-.5.56-7.17-7.04-6.85-8.84,1.76.46,7.8,7.75,6.85,8.84Z"/>
      <path class="st0" d="M242.24,231.59c-3.62-.62-7.54-4.03-9.82-6.85,3.58.97,7.26,4.21,9.82,6.85Z"/>
      <path class="st0" d="M348.27,240.44c-2.07,2.95-7.33,4.28-10.79,4.88,2.26-2.85,7.46-3.51,10.79-4.88Z"/>
      <path class="st0" d="M247.15,303.26c-2.31,2.69-5.21,7.04-8.84,7.83,2.31-2.69,5.21-7.04,8.84-7.83Z"/>
      <path class="st0" d="M338.45,222.78l-8.82,7.84c.53-3.52,5.69-6.66,8.82-7.84Z"/>
      <path class="st0" d="M344.33,231.62l-9.8,5.88c-.56-2.64.7-1.69,1.93-2.44,2.28-1.38,5.17-3.4,7.87-3.44h0Z"/>
      <path class="st0" d="M235.37,243.39c.17,1.97-2.82.58-3.74.3-1.48-.43-3.45-1.34-4.9-2.02s-2.68.59-2.14-2.22l10.78,3.94Z"/>
      <path class="st0" d="M352.18,267.92c0,1.77-4.25,1.06-5.38.96-1.19-.11-5.24-.35-5.41-1.94l10.79.98Z"/>
      <path class="st0" d="M232.43,253.19c-2.78-.66-5.76-1.05-8.52-1.83-1.67-.46-2.74.72-2.26-2.1,3.2,1.84,8.65.53,10.79,3.91h-.01Z"/>
      <path class="st0" d="M347.6,237.5c-2.4,2.6-7.38,4.43-10.79,4.88.5-1.43,3.82-2.52,5.24-3.1,1.79-.72,3.6-1.81,5.55-1.8h0Z"/>
      <polygon class="st0" points="231.44 254.17 230.21 255.92 220.65 253.2 231.44 254.17"/>
      <path class="st0" d="M245.18,227.68l-7.84-7.84c3.09.7,7.2,4.83,7.84,7.84Z"/>
      <path class="st0" d="M233.41,250.24c-3.24-.74-8.69-1.14-10.79-3.9,3.27,1.16,8.71.95,10.79,3.9Z"/>
      <polygon class="st0" points="236.35 290.47 226.53 294.39 235.87 288.52 236.35 290.47"/>
      <path class="st0" d="M352.19,257.13c-1.92,3.57-7.5,1.43-10.79,1.94l10.79-1.94Z"/>
      <path class="st0" d="M345.31,234.56c-2.02,2.76-6.51,4.66-9.81,4.88l9.81-4.88Z"/>
      <path class="st0" d="M231.27,259.07c-2.85-.97-5.46-.77-8.35-.98-1.96-.13-2.85.81-2.44-1.96,3.31,1.75,8.84-.54,10.79,2.93h0Z"/>
      <path class="st0" d="M323.73,223.75c.5-3.26,4.46-5.88,6.85-7.85-.5,3.26-4.46,5.88-6.85,7.85Z"/>
      <path class="st0" d="M335.5,220.82c-1.97,2.39-4.58,6.36-7.85,6.85,1.97-2.39,4.58-6.36,7.85-6.85Z"/>
      <polygon class="st0" points="234.38 246.34 231.39 246.87 223.59 243.39 234.38 246.34"/>
      <path class="st0" d="M351.21,250.26c-2.05,3.13-7.5,2.88-10.79,2.93l10.79-2.93Z"/>
      <path class="st0" d="M351.21,275.76c-3.19-1.38-8.82.03-10.79-2.93,3.15.72,8.89-.09,10.79,2.93Z"/>
      <path class="st0" d="M230.46,260.08c-.04,1.65.66,2.09-1.23,1.75-3.27-.6-6.2-1.17-9.56-.77-.22-1.72,2.23-.92,3.41-.97,2.44-.11,4.92.07,7.37,0h.01Z"/>
      <path class="st0" d="M352.18,254.23l-10.79,1.94c.12-1.39,4.4-1.72,5.51-1.83,1.76-.18,3.51-.21,5.27-.12h.01Z"/>
      <path class="st0" d="M350.22,247.08l-9.8,3.91c-.49-2.74.58-1.65,2.15-2.21,2.35-.84,5.16-1.47,7.66-1.71h-.01Z"/>
      <path class="st0" d="M332.55,218.85l-6.87,6.85c.35-2.7,4.1-6.47,6.87-6.85Z"/>
      <path class="st0" d="M349.24,244.37l-9.81,3.91c-.51-2.8.68-1.6,2.15-2.21,2.4-.98,4.99-1.86,7.66-1.71h0Z"/>
      <path class="st0" d="M352.18,270.86c-.25,1.76-5.16,1.1-6.38.97s-4.39-.29-4.41-1.96l10.79.98h0Z"/>
      <polygon class="st0" points="231.44 276.75 221.63 277.72 230.97 274.8 231.44 276.75"/>
      <path class="st0" d="M349.24,280.69c.24,1.77-2.13.89-3.18.72-1.59-.25-6-.97-6.63-2.69l9.81,1.97Z"/>
      <path class="st0" d="M231.44,268.91c-1.92,3.57-7.5,1.43-10.79,1.94l10.79-1.94Z"/>
      <path class="st0" d="M230.46,272.83l-9.81,1.94c-.2-1.42,2.67-1.5,3.7-1.67,2.04-.34,4.06-.39,6.11-.28h0Z"/>
      <path class="st0" d="M287.39,209.03c-1.72.22-.92-2.22-.97-3.41-.11-2.44.07-4.92,0-7.37,1.72-.22.92,2.22.97,3.41.11,2.44-.07,4.92,0,7.37Z"/>
      <path class="st0" d="M314.88,321.88l-3.91-7.84c2.49,1.42,3.89,5.11,3.91,7.84Z"/>
      <path class="st0" d="M286.41,330.71c-1.72.22-.92-2.22-.97-3.41-.11-2.44.07-4.92,0-7.37,1.72-.22.92,2.22.97,3.41.11,2.44-.07,4.92,0,7.37Z"/>
      <path class="st0" d="M352.18,264c.22,1.72-2.23.92-3.41.97-2.44.11-4.92-.07-7.37,0-.22-1.72,2.23-.92,3.41-.97,2.44-.11,4.92.07,7.37,0Z"/>
      <polygon class="st0" points="348.25 287.55 345.26 288.1 337.47 284.61 348.25 287.55"/>
      <path class="st0" d="M333.53,307.16c-1.16,1.02-5.42-3.66-5.9-4.88,1.25-1.1,6.21,4.61,5.9,4.88Z"/>
      <path class="st0" d="M234.38,283.47c-.41,1.48-3.99,2.55-5.34,2.98-1.46.47-2.86,1.09-4.45.93l9.81-3.91h-.01Z"/>
      <path class="st0" d="M346.3,290.49c.22,1.81-2.05.85-2.97.53-1.44-.53-5.11-2.09-5.84-3.47l8.82,2.95h-.01Z"/>
      <path class="st0" d="M235.17,286.57l-8.82,3.91c.18-1.26,3.44-2.39,4.54-2.8,1.4-.53,2.57-1.44,4.28-1.1h0Z"/>
      <path class="st0" d="M327.64,311.1c-1.8-1.05-4.16-2.85-3.91-4.91,1.8,1.05,4.16,2.85,3.91,4.91Z"/>
      <path class="st0" d="M351.2,277.73c.21,1.8-2.09.84-3.15.71-1.89-.24-6.85-.8-7.63-2.67l10.79,1.97h-.01Z"/>
      <rect class="st0" x="282.61" y="319.87" width=".65" height="7.15"/>
      <path class="st0" d="M318.8,321.88l-4.88-8.82c2.6,1.73,4.12,5.88,4.88,8.82Z"/>
      <path class="st0" d="M344.33,293.22c.17,1.96-1.77.55-2.65.2-2.51-1.01-6.51-2.86-8.13-5.11l10.79,4.91h-.01Z"/>
      <path class="st0" d="M326.65,315.02c-1.6-.71-3.24-2.15-2.93-3.93,1.6.71,3.24,2.15,2.93,3.93Z"/>
      <rect class="st0" x="291.71" y="319.87" width=".65" height="5.85"/>
      <path class="st0" d="M233.41,280.69c-2.11,2.77-7.55,3.16-10.79,3.9l10.79-3.9Z"/>
      <path class="st0" d="M241.27,300.3c-.71,1.6-2.15,3.24-3.93,2.93.71-1.6,2.15-3.24,3.93-2.93Z"/>
      <polygon class="st0" points="279.54 329.73 278.57 326.33 280.51 318.95 279.54 329.73"/>
      <path class="st0" d="M247.16,312.07c-.33-1.77,1.33-3.22,2.93-3.93.33,1.77-1.33,3.22-2.93,3.93Z"/>
      <path class="st0" d="M337.46,306.17c-1.77.33-3.22-1.33-3.93-2.93,1.77-.33,3.22,1.33,3.93,2.93Z"/>
      <polygon class="st0" points="262.84 325.8 262.55 323.06 265.79 316.01 262.84 325.8"/>
      <path class="st0" d="M240.28,305.21c-.71,1.6-2.15,3.24-3.93,2.93.71-1.6,2.15-3.24,3.93-2.93Z"/>
      <path class="st0" d="M296.23,329.73c-1.72.14-.87-2.9-1.09-4.28-.35-2.17-1.23-4.23-.85-6.5l1.26,4.11.68,6.67h0Z"/>
      <path class="st0" d="M276.59,327.77c-1.77.21-.95-2.19-.85-3.31.08-1.02.47-5.42,1.84-5.51l-.98,8.82Z"/>
      <path class="st0" d="M312.92,324.83c-1.44-.05-1.79-2.68-2.42-3.94-.95-1.86-2.46-3.74-2.47-5.87,2.57,2.1,3.79,6.75,4.88,9.81Z"/>
      <path class="st0" d="M306.04,326.79c-1.3-.16-1.97-3.95-2.23-5.12-.35-1.56-1-3.01-.7-4.69l2.93,9.81Z"/>
      <polygon class="st0" points="254.02 320.9 253.81 318.24 257.94 312.08 254.02 320.9"/>
      <path class="st0" d="M342.37,297.35c-2.59-.74-6.26-2.69-7.85-4.88,2.59.74,6.26,2.68,7.85,4.88Z"/>
      <path class="st0" d="M250.1,318.95c.87-3.07,3.44-6.79,5.87-8.84-.85,3.07-3.44,6.79-5.87,8.84Z"/>
      <path class="st0" d="M324.7,317.96c-.37.47-2.6-1.72-1.94-2.94.37-.47,2.6,1.72,1.94,2.94Z"/>
      <path class="st0" d="M303.41,328.76l-1.84-4.52-1.09-6.26c1.62-.14,1.08,2.64,1.42,3.97.58,2.26,1.51,4.45,1.51,6.83h0Z"/>
      <path class="st0" d="M299.17,326.79c-1.97-1.12-1.56-5.87-1.94-7.84,1.96,1.08,1.58,5.86,1.94,7.84Z"/>
      <polygon class="st0" points="341.39 299.33 340.9 301.27 333.53 295.41 341.39 299.33"/>
      <path class="st0" d="M240.28,297.36c.47.37-1.72,2.6-2.94,1.94-.47-.37,1.72-2.6,2.94-1.94Z"/>
      <path class="st0" d="M248.15,315.99c-.66-1.23,1.58-3.41,1.94-2.94.66,1.23-1.58,3.41-1.94,2.94Z"/>
      <path class="st0" d="M319.79,316.98l-4.88-7.84c2.31,1.64,4.48,5.04,4.88,7.84Z"/>
      <path class="st0" d="M331.58,301.27c-1.23.66-3.43-1.58-2.94-1.94,1.23-.66,3.43,1.58,2.94,1.94Z"/>
      <path class="st0" d="M339.43,303.23c-2.1-.12-4.82-2.14-5.9-3.9,2.1.12,4.82,2.14,5.9,3.9Z"/>
      <path class="st0" d="M272.86,328.76c-1.83.22-.72-1.97-.54-2.99.3-1.63,1-6.03,2.51-6.81l-1.97,9.8h0Z"/>
      <path class="st0" d="M231.44,278.72l-9.81,2.93c1.77-2.47,6.99-2.65,9.81-2.93Z"/>
      <polygon class="st0" points="319.77 309.14 321.74 314.04 317.83 309.61 319.77 309.14"/>
      <polygon class="st0" points="269.72 327.77 268.97 324.57 271.69 317.96 269.72 327.77"/>
      <path class="st0" d="M322.73,310.11c-.37.47-2.6-1.72-1.94-2.94.37-.47,2.6,1.72,1.94,2.94Z"/>
      <path class="st0" d="M251.09,312.07c-.66-1.23,1.58-3.41,1.94-2.94.66,1.23-1.58,3.41-1.94,2.94Z"/>
      <polygon class="st0" points="236.47 304.27 234.52 306.23 234.52 304.27 236.47 304.27"/>
      <rect class="st0" x="292.36" y="326.37" width=".65" height="3.25"/>
      <path class="st0" d="M266.78,325.72c-1.85.21-.75-1.98-.54-2.98.26-1.25,1.21-5.41,2.49-5.84l-1.97,8.82h.01Z"/>
      <path class="st0" d="M308.98,324.83c-1.51.24-1.05-1.72-1.5-2.89-.62-1.63-1.76-3.03-1.43-4.95,1.51-.24,1.05,1.72,1.5,2.89.62,1.63,1.76,3.03,1.43,4.95Z"/>
      <polygon class="st0" points="349.24 284.61 346.51 284.89 338.45 281.66 349.24 284.61"/>
      <path class="st0" d="M259.9,323.85c-1.97.16-.54-1.77-.2-2.65.49-1.27,1.84-4.73,3.15-5.19l-2.95,7.84Z"/>
      <rect class="st0" x="320.95" y="317.92" width=".65" height="1.95"/>
      <polygon class="st0" points="256.96 322.86 256.76 320.21 261.87 311.1 256.96 322.86"/>
      <rect class="st0" x="330.7" y="297.77" width="1.95" height=".65"/>
      <rect class="st0" x="229.32" y="299.72" width="1.95" height=".65"/>
      <rect class="st0" x="234.52" y="300.37" width="1.95" height=".65"/>
      <rect class="st0" x="281.96" y="327.67" width=".65" height="1.95"/>
      <path class="st1" d="M297.71,283.61c2.65-.59,3.36,4.35.96,4.9-2.55.58-4.46-4.11-.96-4.9Z"/>
      <rect class="st1" x="301.46" y="281.52" width="3.9" height="3.9"/>
      <path class="st1" d="M292.82,280.67c2.65-.6,3.36,4.35.96,4.9-2.65.6-3.36-4.35-.96-4.9Z"/>
      <path class="st1" d="M268.28,279.7c2.65-.6,3.36,4.35.96,4.9-2.65.6-3.36-4.35-.96-4.9Z"/>
      <path class="st1" d="M302.62,275.77c3.34-.89,4.5,3.22,1.94,3.9-3.34.89-4.5-3.22-1.94-3.9Z"/>
      <path class="st1" d="M280.53,283.63c2.51,2.51-5,6.59-4.88,1.47.03-1.33,4.33-2.01,4.88-1.47Z"/>
      <path class="st1" d="M308.52,259.09c2.65-.6,3.36,4.35.96,4.9-2.65.6-3.36-4.35-.96-4.9Z"/>
      <path class="st1" d="M274.63,284.77l-.46,2.97c-3.43,2.52-3.9.77-3.45-2.97h3.91Z"/>
      <path class="st1" d="M305.36,261.06v3.91c-5.19.47-5.23-4.37,0-3.91Z"/>
      <path class="st1" d="M288.46,275.03v1.94c-2.67.98-4.92,1.59-4.9-1.94h4.9Z"/>
      <path class="st1" d="M282.5,279.7l-1.51,1.92c-2.82.7-4.77-2.15-1.93-3.87l3.44,1.96h0Z"/>
      <path class="st1" d="M301.46,273.71v1.46c-1.03,1.54-2.11,1.71-3.9,1.48v-2.93h3.9Z"/>
      <path class="st1" d="M297.22,267.23c.38,2.35-.46,4.16-2.94,3.91l.98-3.91h1.96Z"/>
      <polygon class="st1" points="296.23 276.33 295.25 279.57 293.29 279.57 294.29 276.33 296.23 276.33"/>
      <polygon class="st1" points="276.76 275.68 276.76 277.63 275.3 277.63 273.82 276.15 276.76 275.68"/>
      <rect class="st1" x="305.36" y="289.32" width=".65" height="1.95"/>
      <rect class="st1" x="307.96" y="293.87" width="1.95" height=".65"/>
      <rect class="st1" x="283.26" y="269.83" width="1.95" height=".65"/>
      <path class="st1" d="M260.9,264.97c-1.67-2.3,2.97-5.88,3.91-2.44s-3.07,3.61-3.91,2.44Z"/>
      <path class="st1" d="M259.21,260.06v-3.91c5.19-.47,5.23,4.37,0,3.91Z"/>
      <path class="st1" d="M281.31,240.43v-3.91c5.19-.47,5.23,4.37,0,3.91Z"/>
      <path class="st1" d="M271.69,252.22c1.62,1.62-2.51,6.22-3.91,2.44-1.26-3.39,3.49-2.86,3.91-2.44Z"/>
      <path class="st1" d="M265.79,254.88h-3.91c-.47-5.19,4.37-5.23,3.91,0Z"/>
      <path class="st1" d="M281.5,241.42c1.62,1.62-2.51,6.22-3.91,2.44-1.26-3.39,3.49-2.86,3.91-2.44Z"/>
      <path class="st1" d="M269.73,262.03l.98,3.91c-2.92.45-4.37-.79-3.93-3.91h2.94Z"/>
      <path class="st1" d="M283.47,246.34c.95.43-3.13,2.46-3.91,2.93-.28-2.53,1.68-3.28,3.91-2.93Z"/>
      <path class="st1" d="M276.61,258.1c-.66-1.23,1.58-3.41,1.94-2.94.66,1.23-1.58,3.41-1.94,2.94Z"/>
    </g>
  </g>
</svg>